<svg width="17" height="22" viewBox="0 0 17 22" fill="none" xmlns="http://www.w3.org/2000/svg">
<path d="M8.49967 0.733341C10.5301 0.733341 12.1818 2.28143 12.1818 4.18445V5.68511C12.1818 7.58813 10.5301 9.13621 8.49967 9.13621C6.46928 9.13621 4.81758 7.58813 4.81758 5.68511V4.18445C4.81758 2.28143 6.46928 0.733341 8.49967 0.733341ZM8.49967 0C6.04416 0 4.03516 1.88298 4.03516 4.18445V5.68511C4.03516 7.98658 6.04416 9.86955 8.49967 9.86955C10.9552 9.86955 12.9642 7.98658 12.9642 5.68511V4.18445C12.9642 1.88298 10.9552 0 8.49967 0Z" fill="#E5DFD3"/>
<path d="M11.1326 11.2069C14.0477 11.7232 16.2176 14.1542 16.2176 16.9517V21.2669H0.782425V16.9517C0.782425 14.1542 2.95235 11.7232 5.8674 11.2069C6.69964 11.5709 7.58404 11.7555 8.5 11.7555C9.41596 11.7555 10.3004 11.5709 11.1326 11.2069ZM11.0139 10.4445C10.2586 10.8112 9.405 11.0221 8.5 11.0221C7.59499 11.0221 6.74137 10.8112 5.98607 10.4445C2.61069 10.9165 0 13.6619 0 16.9514V21.2799C0 21.6761 0.345831 22 0.768341 22H16.2317C16.6544 22 17 21.6759 17 21.2799V16.9517C17 13.6619 14.3893 10.9168 11.0139 10.4445Z" fill="#E5DFD3"/>
</svg>
