<svg width="26" height="22" viewBox="0 0 26 22" fill="none" xmlns="http://www.w3.org/2000/svg">
<path fill-rule="evenodd" clip-rule="evenodd" d="M0.523809 0C0.234517 0 0 0.234518 0 0.52381C0 0.813102 0.234517 1.04762 0.523809 1.04762H25.4762C25.7655 1.04762 26 0.813102 26 0.52381C26 0.234518 25.7655 0 25.4762 0H0.523809ZM0 11C0 10.7107 0.234517 10.4762 0.523809 10.4762H25.4762C25.7655 10.4762 26 10.7107 26 11C26 11.2893 25.7655 11.5238 25.4762 11.5238H0.523809C0.234517 11.5238 0 11.2893 0 11ZM0 21.4762C0 21.1869 0.234517 20.9524 0.523809 20.9524H25.4762C25.7655 20.9524 26 21.1869 26 21.4762C26 21.7655 25.7655 22 25.4762 22H0.523809C0.234517 22 0 21.7655 0 21.4762Z" fill="#E5DFD3"/>
</svg>
