<svg width="19" height="22" viewBox="0 0 19 22" fill="none" xmlns="http://www.w3.org/2000/svg">
<path d="M8.47494 0.0455151C5.69285 0.374166 4.32075 2.21744 4.81578 4.96674C4.85343 5.17552 4.89586 5.38878 4.91016 5.43749C4.93852 5.53515 4.92899 5.53515 4.16512 5.54862L3.39172 5.56635L3.03326 5.73517C2.50034 5.97941 2.20338 6.34802 2.0997 6.88118C2.07134 7.01452 1.58585 10.119 1.01051 13.7833C0.25117 18.6646 -0.0222008 20.4988 0.00139443 20.6454C0.0769468 21.1519 0.449466 21.6181 0.963317 21.8579L1.27458 22H9.50312H17.7317L18.0477 21.8534C18.5523 21.6179 18.8871 21.1916 18.9908 20.6497C19.0332 20.4277 18.9531 19.868 18.2317 15.2934C17.7884 12.4819 17.317 9.49714 17.1897 8.65329C16.8973 6.74783 16.8832 6.68565 16.7607 6.45039C16.6146 6.1572 16.2845 5.86851 15.926 5.70868C15.6195 5.57107 15.5912 5.56658 14.8414 5.55333C14.0775 5.5356 14.068 5.5356 14.0963 5.43794C14.2188 5.01164 14.2801 4.47848 14.2801 3.87887C14.2753 3.31474 14.2565 3.14592 14.1576 2.78629C13.7143 1.20073 12.4695 0.272474 10.4701 0.0414753C9.97455 -0.0166671 8.97021 -0.0121784 8.47494 0.0455151ZM11.059 0.80496C11.8936 1.00924 12.5112 1.35563 12.9168 1.83985C13.6006 2.66148 13.7703 3.77628 13.4354 5.21974L13.3599 5.5439H9.50289H5.65043L5.53722 5.06417C5.39112 4.45132 5.38158 3.42092 5.50886 2.96768C5.82489 1.86185 6.59328 1.15112 7.81952 0.835712C8.3901 0.689122 8.67777 0.662409 9.66805 0.675879C10.4932 0.689572 10.6676 0.707308 11.059 0.80496ZM15.6848 6.33477C15.8641 6.42367 15.9773 6.51683 16.0714 6.65893C16.1942 6.84997 16.2459 7.14742 17.2598 13.5875C17.8444 17.2873 18.3208 20.3785 18.3208 20.4584C18.3208 20.7783 18.0708 21.1247 17.7314 21.2713C17.5522 21.3512 17.2269 21.3557 9.51242 21.3557C2.35901 21.3557 1.46311 21.3467 1.30747 21.2846C0.967846 21.1512 0.684941 20.7961 0.684941 20.5029C0.684941 20.423 1.16114 17.3273 1.74125 13.623C2.8681 6.4322 2.83044 6.63649 3.13241 6.43669C3.48133 6.2012 3.13718 6.21467 9.50765 6.21018H15.4348L15.6848 6.33477Z" fill="#E5DFD3"/>
</svg>
