<svg width="110" height="61" viewBox="0 0 110 61" fill="none" xmlns="http://www.w3.org/2000/svg">
<path d="M0.0250679 60.2732H0.476297C1.103 60.2732 1.17821 60.2231 1.17821 59.6466V52.6036C1.17821 52.0272 1.103 51.977 0.476297 51.977H0.0250679V51.8768H5.43983C5.66544 51.8768 5.69051 51.9018 5.79078 51.977L5.74065 51.175H5.86599L6.11667 54.6338H5.89106L5.84092 53.8067C5.76571 52.5284 4.73791 52.1024 3.4845 52.1024H1.90519C2.0556 52.2527 2.18094 52.4532 2.18094 52.729V56.263H2.70738C3.43436 56.263 4.33682 56.1377 4.33682 55.0098V54.308H4.43709V58.218H4.31175V57.7418C4.31175 56.9146 3.73518 56.4886 2.68231 56.4886H2.15588V59.6968C2.15588 60.2732 2.23108 60.3234 2.85779 60.3234H3.71011V60.4236H0V60.2732H0.0250679Z" fill="#E5DFD3"/>
<path d="M10.6543 60.2731H11.1055C11.7322 60.2731 11.8074 60.223 11.8074 59.6465V52.5785C11.8074 52.002 11.7322 51.9519 11.1055 51.9519H10.6543V51.8516H13.9633V51.9769H13.5121C12.8854 51.9769 12.8102 52.0271 12.8102 52.6035V59.6465C12.8102 60.223 12.8854 60.2731 13.5121 60.2731H13.9633V60.3734H10.6543V60.2731Z" fill="#E5DFD3"/>
<path d="M18.4502 60.3484V60.2481H18.7761C19.4028 60.2481 19.478 60.198 19.478 59.6215V52.5785C19.478 52.002 19.4028 51.9519 18.7761 51.9519H18.4502V51.8517H20.4306L24.0154 57.8169C24.1658 58.0425 24.241 58.2179 24.241 58.243H24.3162C24.3162 58.1177 24.3162 57.9422 24.3162 57.7417V52.6788C24.3162 52.1023 24.0906 51.9269 23.4639 51.9269H22.8873V51.8266H25.5696V51.9269H25.3691C24.7423 51.9269 24.5167 52.1023 24.5418 52.6788V60.5739H24.4415C24.4415 60.4236 24.241 60.1228 24.0655 59.8471L20.0044 53.1801C19.8791 52.9545 19.7538 52.754 19.7538 52.7289H19.6785C19.7036 52.8542 19.7036 53.0297 19.7036 53.2302V59.6215C19.7036 60.198 19.7788 60.2481 20.4055 60.2481H20.7565V60.3484H18.4502Z" fill="#E5DFD3"/>
<path d="M34.1431 57.8921V57.2404C34.1431 56.1125 33.4663 55.9621 32.7393 55.9872H32.2128V59.4962C32.2128 59.7468 32.0875 59.9724 31.9371 60.1228H34.5442C35.7976 60.1228 36.3993 59.6466 36.4745 58.5187L36.5497 57.5662H36.7502L36.5246 60.7744H36.4243L36.4494 60.223C36.3491 60.2982 36.1736 60.3233 35.9731 60.3233H30.082V60.223H30.5333C31.16 60.223 31.2352 60.1729 31.2352 59.5964V52.5534C31.2352 51.977 31.16 51.9268 30.5333 51.9268H30.082V51.8266H35.2712C35.4717 51.8266 35.6723 51.8516 35.7475 51.9268H35.7725L35.7224 51.3754H35.8477L36.0984 54.5836H35.8728L35.8227 53.7565C35.7475 52.4782 35.0706 52.0271 33.8172 52.0522H31.9872C32.1376 52.2025 32.263 52.4031 32.263 52.6788V55.7867H32.7894C33.5164 55.7867 34.1932 55.6614 34.1932 54.5335V54.1074H34.3186V57.9171H34.1431V57.8921Z" fill="#E5DFD3"/>
<path d="M48.1065 57.6915L48.1315 58.1678C48.2067 59.5713 49.2346 60.4737 50.488 60.4737C51.6662 60.4737 52.4433 59.8471 52.4433 58.6941C52.4433 56.5386 48.1566 56.5386 48.1566 53.9069C48.1566 52.7539 49.1844 51.9769 50.7387 51.9769C51.5158 51.9769 52.0673 52.2276 52.4684 52.5033C52.5686 52.5534 52.6689 52.7289 52.694 52.779L52.7692 52.7539C52.7441 52.6787 52.7441 52.5534 52.7191 52.378L52.694 51.7514H52.8193L52.9697 54.5585H52.7441L52.7191 54.0573C52.6689 53.1299 52.0673 52.2025 50.7637 52.2025C49.7108 52.2025 49.1092 52.7038 49.1092 53.6562C49.1092 55.7616 53.446 55.7366 53.446 58.5187C53.446 59.9473 52.343 60.6992 50.5381 60.6992C49.7359 60.6992 49.1343 60.4987 48.4825 60.0476C48.3822 59.9974 48.2067 59.7719 48.1566 59.6465H48.1065C48.1566 59.7719 48.1566 60.0225 48.1566 60.1478L48.1817 60.8997H48.0563L47.8809 57.6665L48.1065 57.6915Z" fill="#E5DFD3"/>
<path d="M58.209 56.288C58.209 53.6813 60.039 51.9519 62.7714 51.9519C63.6488 51.9519 64.5011 52.2026 65.1529 52.7038C65.2031 52.754 65.2532 52.8542 65.3033 52.9294L65.3785 52.9043C65.3535 52.8041 65.3535 52.6788 65.3535 52.5534L65.3284 51.6762H65.4537L65.5791 55.11H65.3535L65.3284 54.0072C65.2532 52.9294 63.9998 52.1023 62.7213 52.1023C60.5654 52.1023 59.4373 53.4808 59.4373 56.0373C59.4373 58.8696 60.6406 60.3985 62.8717 60.3985C64.1 60.3985 65.3033 59.7719 65.7796 58.7944L66.0052 58.8696C65.5039 60.0476 64.2254 60.6241 62.8717 60.6241C60.064 60.6742 58.209 58.9197 58.209 56.288Z" fill="#E5DFD3"/>
<path d="M74.6044 58.1427V57.4911C74.6044 56.3632 73.9275 56.2128 73.2005 56.2128H72.6741V59.7218C72.6741 59.9724 72.5488 60.198 72.3984 60.3484H75.0055C76.2589 60.3484 76.8605 59.8972 76.9608 58.7443L77.036 57.7918H77.2365L77.0109 61H76.9107L76.9357 60.4486C76.8354 60.5238 76.66 60.5489 76.4594 60.5489H70.5684V60.4486H71.0196C71.6463 60.4486 71.7215 60.3985 71.7215 59.822V52.779C71.7215 52.2026 71.6463 52.1524 71.0196 52.1524H70.5684V52.0522H75.7826C75.9831 52.0522 76.1837 52.0772 76.2589 52.1524H76.2839L76.2338 51.601H76.3591L76.5848 54.8092H76.3591L76.309 53.9821C76.2338 52.7038 75.557 52.2527 74.3035 52.2527H72.4736C72.624 52.4031 72.7493 52.6036 72.7493 52.8793V55.9872H73.2757C74.0027 55.9872 74.6796 55.8619 74.6796 54.734V54.3079H74.8049V58.1177H74.6044V58.1427Z" fill="#E5DFD3"/>
<path d="M81.748 60.599V60.4987H82.0739C82.7006 60.4987 82.7758 60.4486 82.7758 59.8721V52.8291C82.7758 52.2527 82.7006 52.2025 82.0739 52.2025H81.748V52.1023H83.7284L87.3132 58.0675C87.4636 58.2931 87.5388 58.4685 87.5388 58.4936H87.614C87.614 58.3683 87.614 58.1928 87.614 57.9923V52.9294C87.614 52.3529 87.4135 52.1775 86.7617 52.1775H86.1851V52.0772H88.8675V52.1775H88.6669C88.0402 52.1775 87.8146 52.3529 87.8146 52.9294V60.7995H87.7143C87.7143 60.6491 87.5138 60.3483 87.3383 60.0726L83.3023 53.4056C83.1769 53.18 83.0516 52.9795 83.0516 52.9545H82.9764C83.0015 53.0798 83.0015 53.2552 83.0015 53.4557V59.8471C83.0015 60.4235 83.0767 60.4737 83.7034 60.4737H84.0543V60.5739H81.748V60.599Z" fill="#E5DFD3"/>
<path d="M94.4328 60.4737H95.4355C96.0622 60.4737 96.1123 60.4236 96.1123 59.8471V52.2777H95.3352C94.0818 52.2777 93.6306 52.5033 93.5804 53.6312L93.5303 54.1074H93.3047L93.5052 51.3504H93.6556L93.6055 52.0271H99.672L99.6219 51.3504H99.7723L99.9729 54.0824H99.7473L99.7222 53.6061C99.6219 52.4783 99.2208 52.2527 97.9674 52.2527H97.2153V59.822C97.2153 60.3985 97.2655 60.4486 97.8922 60.4486H98.8699V60.5489H94.4328V60.4737Z" fill="#E5DFD3"/>
<path d="M104.66 57.6915L104.685 58.1678C104.76 59.5713 105.788 60.4737 107.042 60.4737C108.22 60.4737 108.997 59.8471 108.997 58.6941C108.997 56.5386 104.71 56.5386 104.71 53.9069C104.71 52.7539 105.738 51.9769 107.292 51.9769C108.069 51.9769 108.621 52.2276 109.022 52.5033C109.122 52.5534 109.223 52.7289 109.248 52.779L109.323 52.7539C109.298 52.6787 109.298 52.5534 109.273 52.378L109.248 51.7514H109.373L109.523 54.5585H109.298L109.273 54.0573C109.223 53.1299 108.621 52.2025 107.317 52.2025C106.265 52.2025 105.663 52.7038 105.663 53.6562C105.663 55.7616 110 55.7366 110 58.5187C110 59.9473 108.897 60.6992 107.092 60.6992C106.29 60.6992 105.688 60.4987 105.036 60.0476C104.936 59.9974 104.76 59.7719 104.71 59.6465H104.66C104.71 59.7719 104.71 60.0225 104.71 60.1478L104.735 60.8997H104.61L104.435 57.6665L104.66 57.6915Z" fill="#E5DFD3"/>
<path d="M78.5894 0.119545C76.9098 0.520569 75.0297 2.52569 73.676 3.60344C71.846 5.08222 70.1163 6.66126 68.4618 8.31548C63.1724 9.9697 57.9331 10.3206 52.3428 10.2454C44.9226 10.1451 33.4413 10.7216 29.6059 18.4413C29.4053 18.8424 30.007 19.1682 30.1824 18.7922C33.1906 12.6766 42.2152 11.0725 48.3319 10.8971C54.4736 10.7467 60.3898 11.248 66.4062 9.64387C66.7321 9.56868 67.083 9.46842 67.4089 9.36816C67.1582 9.6188 66.9075 9.86944 66.6819 10.1201C64.2754 12.6766 62.0443 15.3585 59.8383 18.0654C56.1532 20.7222 52.6687 23.6547 49.2344 26.6373C47.3041 28.3166 45.6997 30.2966 44.0703 32.2767C43.1428 33.4046 41.0872 35.2844 40.9367 36.8133C40.9367 36.9386 41.012 37.0388 41.1122 37.114C43.4937 38.6179 49.7107 30.9984 50.9139 29.7201C54.3232 26.1109 57.4066 22.226 60.5151 18.3661C61.3424 17.7646 62.1947 17.1881 63.0721 16.6117C64.7266 15.5339 66.4312 14.5314 68.186 13.5789C68.7626 13.2782 69.3642 12.9523 69.9659 12.6516C70.8433 12.2505 75.0798 10.4459 74.4531 12.025C74.3027 12.426 74.9545 12.6014 75.1049 12.2004C75.4308 11.3482 75.4057 11.5989 75.1801 10.6966C75.1299 10.496 74.9545 10.4459 74.7539 10.471C70.1413 11.1477 65.9048 13.8045 62.0693 16.4362C64.1751 13.8546 66.356 11.3232 68.7125 8.96714C72.4727 7.86433 76.7594 6.26023 79.1158 3.40293C80.3442 1.97428 81.4973 -0.582248 78.5894 0.119545ZM54.1478 25.0332C51.5406 28.1411 48.7831 31.0987 45.8251 33.8808C45.073 34.5826 43.2932 36.5376 42.8169 36.337C42.6414 36.0613 43.243 35.0337 43.2681 34.9585C43.3684 34.758 43.1678 34.6076 43.2681 34.4071C43.2932 34.3319 43.3182 34.2818 43.3182 34.2066C43.6692 33.8306 44.0202 33.4547 44.321 33.0787C47.2038 29.5196 50.2622 26.5871 53.7968 23.6547C55.2257 22.4516 56.6797 21.2986 58.1587 20.1457C56.8301 21.7749 55.5014 23.404 54.1478 25.0332ZM69.9408 12.7017C69.7653 12.7769 69.7904 12.7518 69.9408 12.7017V12.7017ZM70.1163 7.76407C70.0411 7.78913 69.9909 7.8142 69.9157 7.83926C70.6678 7.1124 71.4198 6.41061 72.222 5.70882C73.4754 4.63107 74.7539 3.60344 76.0825 2.60088C76.7343 2.0996 78.9654 0.144612 79.1659 2.30012C79.3414 4.50575 71.2444 7.33798 70.1163 7.76407Z" fill="#E5DFD3"/>
</svg>
