<svg width="126" height="12" viewBox="0 0 126 12" fill="none" xmlns="http://www.w3.org/2000/svg">
<path d="M0.0143612 11.0888H0.528541C1.24954 11.0888 1.32997 11.0157 1.32997 10.3244V1.75729C1.32997 1.06595 1.24667 0.9959 0.52567 0.9959H0V0.864934H6.20462C6.44878 0.864934 6.49187 0.892348 6.61251 0.992851L6.55794 0.0152333L6.69294 0L6.9802 4.21808H6.69294L6.6556 3.19174C6.5723 1.63546 5.38883 1.10554 3.9497 1.10858H2.14576V1.12381C2.24568 1.21773 2.32632 1.33244 2.38265 1.4608C2.43899 1.58916 2.46982 1.72844 2.47323 1.86997V6.16114H3.06497C3.90661 6.16114 4.92348 6.01496 4.92061 4.63837V3.77344H5.07572V8.53667H4.93784V7.94888C4.93784 6.95603 4.28291 6.42611 3.07646 6.42611H2.49046V10.3122C2.49046 11.0036 2.58526 11.0767 3.30626 11.0736H4.26855V11.2015H0.0201075L0.0143612 11.0888Z" fill="#E5DFD3"/>
<path d="M12.1904 11.0703H12.7046C13.4256 11.0703 13.5089 11.0125 13.506 10.3211V1.72661C13.506 1.03832 13.4227 0.980447 12.7017 0.980447H12.1875V0.852539H15.9878V1.00786H15.4736C14.7526 1.00786 14.6579 1.06573 14.6607 1.75707V10.3211C14.6607 11.0125 14.7555 11.0703 15.4765 11.0703H15.9907V11.1983H12.1904V11.0703Z" fill="#E5DFD3"/>
<path d="M21.1357 11.1834V11.0555H21.5149C22.2359 11.0555 22.3306 10.9824 22.3278 10.2911V1.72397C22.3278 1.03568 22.233 0.962587 21.512 0.962587H21.1328V0.834679H23.4136L27.5241 8.08308C27.6367 8.24492 27.7239 8.42487 27.7827 8.61605H27.8775C27.8631 8.45463 27.8631 8.25363 27.8631 8.00694V1.86103C27.8631 1.16969 27.6189 0.947363 26.8979 0.947363H26.2315V0.816406H29.3022V0.944314H29.0696C28.3514 0.944314 28.1073 1.16359 28.1073 1.85798V11.4454H27.9981C27.9074 11.1241 27.7645 10.8221 27.5759 10.553L22.9339 2.4549C22.8241 2.2766 22.728 2.0892 22.6466 1.89452H22.5662C22.5903 2.09649 22.5999 2.30012 22.5949 2.50363V10.2759C22.5949 10.9672 22.6782 11.0403 23.3992 11.0403H23.7928V11.1682L21.1357 11.1834Z" fill="#E5DFD3"/>
<path d="M39.1176 8.18929V7.39745C39.1176 6.01781 38.342 5.85945 37.5004 5.85945H36.9029V10.1232C36.9013 10.2648 36.8715 10.4044 36.8156 10.5329C36.7597 10.6615 36.6788 10.7761 36.5783 10.8694V10.8846H39.5456C40.9819 10.8846 41.6627 10.3181 41.7689 8.93544L41.8637 7.78423H42.0935L41.8436 11.6978H41.723L41.7632 11.0338H41.7488C41.5815 11.1407 41.3858 11.1867 41.1916 11.1648H34.4297V11.0369H34.9496C35.6706 11.0369 35.751 10.9638 35.7482 10.2724V1.70532C35.7482 1.01703 35.6677 0.943934 34.9467 0.943934H34.4297V0.816026H40.3901C40.5795 0.793877 40.7704 0.838853 40.933 0.943934H40.9618L40.9072 0.283056L41.0422 0.267822L41.3295 4.16917H41.0594L41.002 3.16109C40.9072 1.60786 40.1402 1.07489 38.704 1.07794H36.5984V1.09316C36.6993 1.18624 36.7806 1.30078 36.837 1.42933C36.8934 1.55787 36.9237 1.69756 36.9259 1.83933V5.61276H37.5234C38.365 5.61276 39.1377 5.46353 39.1349 4.08999V3.58443H39.2584V8.20451L39.1176 8.18929Z" fill="#E5DFD3"/>
<path d="M55.1062 7.94885L55.1349 8.53969C55.139 8.91097 55.2122 9.27774 55.3502 9.619C55.4882 9.96025 55.6883 10.2693 55.9392 10.5284C56.19 10.7876 56.4865 10.9917 56.8119 11.1291C57.1372 11.2666 57.4849 11.3346 57.8351 11.3294C59.1938 11.3294 60.0756 10.568 60.0756 9.15794C60.0756 6.52354 55.1608 6.52354 55.1608 3.32572C55.1608 1.93085 56.3414 0.995874 58.108 0.995874C58.8147 0.983136 59.5076 1.20459 60.09 1.62934C60.1896 1.72229 60.2723 1.83377 60.3341 1.95827L60.4289 1.93085C60.3975 1.77965 60.3793 1.62572 60.3744 1.47098L60.3341 0.706543H60.4835L60.6473 4.10537L60.3744 4.1206L60.3485 3.51149C60.2796 2.3755 59.5873 1.2517 58.108 1.2517C56.8986 1.2517 56.2064 1.8608 56.2064 3.00898C56.2064 5.55505 61.1902 5.52764 61.1902 8.9082C61.1902 10.6381 59.9263 11.5731 57.8638 11.5731C57.0188 11.5812 56.1924 11.3098 55.4997 10.7964C55.3463 10.6688 55.2216 10.5065 55.1349 10.3213H55.066C55.1094 10.5212 55.1325 10.7254 55.1349 10.9304L55.1751 11.8441H55.0372L54.8477 7.91536L55.1062 7.94885Z" fill="#E5DFD3"/>
<path d="M66.6855 6.23746C66.6855 3.08532 68.7767 0.983895 71.8991 0.983895C72.8829 0.964504 73.8458 1.28522 74.6424 1.89756C74.7108 1.98441 74.766 2.08202 74.8061 2.18689L74.9009 2.15947C74.872 2.02256 74.8585 1.88251 74.8607 1.74223L74.832 0.688477H74.967L75.1049 4.85174H74.8176L74.7774 3.51474C74.6941 2.21734 73.2435 1.20926 71.7756 1.20926C69.3196 1.20926 68.0012 2.88127 68.0012 5.99077C68.0012 9.4292 69.3857 11.287 71.9394 11.287C73.3526 11.287 74.7372 10.5378 75.2657 9.32869L75.5243 9.4292C74.9498 10.8697 73.4876 11.5611 71.925 11.5611C68.7882 11.5611 66.6855 9.42919 66.6855 6.23441V6.23746Z" fill="#E5DFD3"/>
<path d="M85.4888 8.49481V7.70297C85.4888 6.32334 84.7132 6.16497 83.8715 6.16497H83.2741V10.4287C83.2714 10.5706 83.2412 10.7103 83.1854 10.8392C83.1295 10.9681 83.0492 11.0834 82.9495 11.1779V11.1932H85.9225C87.3588 11.1932 88.0396 10.6328 88.1487 9.25011L88.2435 8.09889H88.4733L88.2148 12.0002L88.0941 11.985L88.1343 11.3211C87.9688 11.4299 87.7734 11.4761 87.58 11.452H80.8037V11.3211H81.3179C82.0389 11.3211 82.1222 11.251 82.1222 10.5597V2.00476C82.1222 1.31342 82.0389 1.24032 81.3179 1.24032H80.8037V1.11241H86.7642C86.9535 1.09026 87.1444 1.13524 87.3071 1.24032H87.3329L87.2812 0.579442L87.4162 0.564209L87.6862 4.46555H87.4162L87.3616 3.45748C87.2669 1.9012 86.4999 1.37128 85.0636 1.37128H82.9495C83.0492 1.46582 83.1295 1.58114 83.1854 1.71004C83.2412 1.83895 83.2714 1.97867 83.2741 2.12049V5.90305H83.8715C84.7132 5.90305 85.4888 5.75991 85.4888 4.38028V3.87776H85.6238V8.49786L85.4888 8.49481Z" fill="#E5DFD3"/>
<path d="M93.6582 11.4608V11.3299H94.0374C94.7584 11.3299 94.8532 11.2598 94.8532 10.5685V2.0044C94.8532 1.31306 94.7584 1.23996 94.0374 1.23996H93.6582V1.11205H95.939L100.041 8.36959C100.152 8.53264 100.239 8.71227 100.299 8.90256H100.394C100.38 8.74419 100.38 8.54318 100.38 8.29345V2.14754C100.38 1.4562 100.136 1.23387 99.4147 1.23387H98.7512V1.10596H101.819V1.23387H101.592C100.874 1.23387 100.63 1.45011 100.63 2.14754V11.7349H100.521C100.43 11.4137 100.287 11.1117 100.098 10.8426L95.4708 2.73837C95.3607 2.55915 95.2647 2.37072 95.1835 2.17495H95.1031C95.126 2.37702 95.1346 2.58062 95.1289 2.78406V10.5563C95.1289 11.2476 95.2094 11.3177 95.9304 11.3177H96.3239V11.4486L93.6582 11.4608Z" fill="#E5DFD3"/>
<path d="M108.199 11.3299H109.348C110.069 11.3299 110.135 11.2599 110.135 10.5685V1.3649H109.239C107.802 1.3649 107.297 1.63595 107.228 3.01863L107.173 3.60947L106.9 3.59424L107.133 0.244141H107.294L107.228 1.08167H114.179L114.11 0.259365L114.274 0.244141L114.492 3.56987L114.22 3.58511L114.179 2.99427C114.07 1.61159 113.605 1.34054 112.169 1.34054H111.307V10.5381C111.307 11.2294 111.373 11.2995 112.094 11.2995H113.206V11.4304H108.199V11.3299Z" fill="#E5DFD3"/>
<path d="M119.913 7.94924L119.939 8.54008C119.943 8.9115 120.017 9.27834 120.155 9.61962C120.293 9.96089 120.494 10.2699 120.745 10.529C120.996 10.7881 121.293 10.9922 121.618 11.1296C121.944 11.267 122.292 11.335 122.642 11.3298C124.001 11.3298 124.882 10.5684 124.882 9.15833C124.882 6.52393 119.968 6.52393 119.968 3.32611C119.968 1.93125 121.148 0.996265 122.912 0.996265C123.619 0.98312 124.312 1.20461 124.894 1.62973C124.998 1.72673 125.083 1.84345 125.147 1.97388L125.241 1.94647C125.21 1.79527 125.192 1.64133 125.187 1.48659L125.147 0.722168H125.296L125.457 4.12099L125.187 4.13622L125.158 3.52711C125.089 2.39112 124.397 1.26731 122.918 1.26731C121.711 1.26731 121.016 1.87643 121.016 3.0246C121.016 5.57068 126 5.54327 126 8.92382C126 10.6537 124.739 11.5887 122.673 11.5887C121.829 11.5968 121.004 11.3253 120.312 10.8121C120.159 10.6838 120.033 10.5217 119.945 10.337H119.876C119.919 10.5368 119.942 10.741 119.945 10.9461L119.988 11.8597H119.85L119.66 7.93097L119.913 7.94924Z" fill="#E5DFD3"/>
</svg>
