<svg width="190" height="106" viewBox="0 0 190 106" fill="none" xmlns="http://www.w3.org/2000/svg">
<path d="M0.0432992 104.462H0.822696C1.90519 104.462 2.03509 104.375 2.03509 103.376V91.1695C2.03509 90.1704 1.90519 90.0835 0.822696 90.0835H0.0432992V89.9097H9.39608C9.78578 89.9097 9.82908 89.9532 10.0023 90.0835L9.91568 88.6934H10.1322L10.5652 94.6881H10.1755L10.0889 93.2546C9.95898 91.0392 8.18368 90.3007 6.01868 90.3007H3.29079C3.55059 90.5613 3.76709 90.9088 3.76709 91.3867V97.5116H4.67639C5.93209 97.5116 7.49088 97.2944 7.49088 95.3397V94.1234H7.66408V100.9H7.44758V100.075C7.44758 98.6411 6.45168 97.9026 4.63309 97.9026H3.72379V103.463C3.72379 104.462 3.85369 104.549 4.93619 104.549H6.40838V104.723H0V104.462H0.0432992Z" fill="black"/>
<path d="M18.4023 104.462H19.1817C20.2642 104.462 20.3941 104.375 20.3941 103.376V91.1259C20.3941 90.1268 20.2642 90.0399 19.1817 90.0399H18.4023V89.8662H24.1179V90.0834H23.3385C22.256 90.0834 22.1261 90.1703 22.1261 91.1694V103.376C22.1261 104.375 22.256 104.462 23.3385 104.462H24.1179V104.636H18.4023V104.462Z" fill="black"/>
<path d="M31.8691 104.592V104.418H32.432C33.5145 104.418 33.6444 104.332 33.6444 103.332V91.126C33.6444 90.1269 33.5145 90.04 32.432 90.04H31.8691V89.8662H35.2898L41.4817 100.205C41.7415 100.596 41.8714 100.9 41.8714 100.943H42.0013C42.0013 100.726 42.0013 100.422 42.0013 100.075V91.2998C42.0013 90.3006 41.6116 89.9966 40.5291 89.9966H39.5332V89.8228H44.1663V89.9966H43.8199C42.7374 89.9966 42.3477 90.3006 42.391 91.2998V104.983H42.2178C42.2178 104.723 41.8714 104.201 41.5683 103.723L34.5537 92.1685C34.3372 91.7776 34.1207 91.4301 34.1207 91.3866H33.9908C34.0341 91.6038 34.0341 91.9079 34.0341 92.2554V103.332C34.0341 104.332 34.164 104.418 35.2465 104.418H35.8527V104.592H31.8691Z" fill="black"/>
<path d="M58.9745 100.335V99.2057C58.9745 97.2509 57.8054 96.9903 56.5497 97.0337H55.6405V103.115C55.6405 103.55 55.424 103.941 55.1642 104.201H59.6673C61.8323 104.201 62.8715 103.376 63.0014 101.421L63.1313 99.7704H63.4777L63.088 105.331H62.9148L62.9581 104.375C62.7849 104.505 62.4818 104.549 62.1354 104.549H51.96V104.375H52.7394C53.8219 104.375 53.9518 104.288 53.9518 103.289V91.0825C53.9518 90.0834 53.8219 89.9965 52.7394 89.9965H51.96V89.8228H60.923C61.2694 89.8228 61.6158 89.8662 61.7457 89.9965H61.789L61.7024 89.0409H61.9189L62.3519 94.6011H61.9622L61.8756 93.1676C61.7457 90.9522 60.5766 90.1703 58.4116 90.2137H55.2507C55.5105 90.4744 55.7271 90.8219 55.7271 91.2997V96.6862H56.6364C57.892 96.6862 59.0611 96.469 59.0611 94.5142V93.7758H59.2776V100.379H58.9745V100.335Z" fill="black"/>
<path d="M83.0928 99.9877L83.1361 100.813C83.266 103.246 85.0413 104.809 87.2063 104.809C89.2414 104.809 90.5837 103.723 90.5837 101.725C90.5837 97.9894 83.1794 97.9894 83.1794 93.4283C83.1794 91.4301 84.9547 90.0835 87.6393 90.0835C88.9816 90.0835 89.9342 90.5179 90.627 90.9957C90.8002 91.0826 90.9734 91.3866 91.0167 91.4735L91.1466 91.4301C91.1033 91.2998 91.1033 91.0826 91.06 90.7785L91.0167 89.6925H91.2332L91.493 94.5577H91.1033L91.06 93.6889C90.9734 92.0817 89.9342 90.4744 87.6826 90.4744C85.864 90.4744 84.8248 91.3432 84.8248 92.9939C84.8248 96.6428 92.3157 96.5994 92.3157 101.421C92.3157 103.897 90.4105 105.2 87.2929 105.2C85.9073 105.2 84.8681 104.853 83.7423 104.071C83.5691 103.984 83.266 103.593 83.1794 103.376H83.0928C83.1794 103.593 83.1794 104.028 83.1794 104.245L83.2227 105.548H83.0062L82.7031 99.9442L83.0928 99.9877Z" fill="black"/>
<path d="M100.543 97.5551C100.543 93.0374 103.704 90.04 108.424 90.04C109.939 90.04 111.411 90.4744 112.537 91.3432C112.624 91.4301 112.71 91.6039 112.797 91.7342L112.927 91.6907C112.883 91.517 112.883 91.2998 112.883 91.0826L112.84 89.5622H113.057L113.273 95.5134H112.883L112.84 93.6021C112.71 91.7342 110.545 90.3007 108.337 90.3007C104.613 90.3007 102.665 92.6898 102.665 97.1207C102.665 102.029 104.743 104.679 108.597 104.679C110.718 104.679 112.797 103.593 113.62 101.899L114.009 102.029C113.143 104.071 110.935 105.07 108.597 105.07C103.747 105.157 100.543 102.116 100.543 97.5551Z" fill="black"/>
<path d="M128.861 100.77V99.6401C128.861 97.6853 127.692 97.4247 126.436 97.4247H125.527V103.506C125.527 103.941 125.31 104.332 125.051 104.592H129.554C131.719 104.592 132.758 103.81 132.931 101.812L133.061 100.161H133.407L133.018 105.722H132.845L132.888 104.766C132.715 104.896 132.412 104.94 132.065 104.94H121.89V104.766H122.669C123.752 104.766 123.881 104.679 123.881 103.68V91.4735C123.881 90.4744 123.752 90.3875 122.669 90.3875H121.89V90.2137H130.896C131.242 90.2137 131.589 90.2572 131.719 90.3875H131.762L131.675 89.4318H131.892L132.282 94.9921H131.892L131.805 93.5586C131.675 91.3432 130.506 90.5613 128.341 90.5613H125.18C125.44 90.8219 125.657 91.1694 125.657 91.6472V97.0337H126.566C127.822 97.0337 128.991 96.8165 128.991 94.8618V94.1233H129.207V100.726H128.861V100.77Z" fill="black"/>
<path d="M141.201 105.027V104.853H141.764C142.847 104.853 142.976 104.766 142.976 103.767V91.5604C142.976 90.5612 142.847 90.4744 141.764 90.4744H141.201V90.3006H144.622L150.814 100.639C151.074 101.03 151.203 101.334 151.203 101.378H151.333C151.333 101.16 151.333 100.856 151.333 100.509V91.7341C151.333 90.735 150.987 90.4309 149.861 90.4309H148.865V90.2572H153.498V90.4309H153.152C152.069 90.4309 151.68 90.735 151.68 91.7341V105.374H151.507C151.507 105.113 151.16 104.592 150.857 104.114L143.886 92.5595C143.669 92.1685 143.453 91.821 143.453 91.7776H143.323C143.366 91.9948 143.366 92.2988 143.366 92.6463V103.723C143.366 104.723 143.496 104.809 144.579 104.809H145.185V104.983H141.201V105.027Z" fill="black"/>
<path d="M163.112 104.809H164.844C165.926 104.809 166.013 104.723 166.013 103.723V90.6047H164.67C162.505 90.6047 161.726 90.9957 161.639 92.9505L161.553 93.7758H161.163L161.509 88.9975H161.769L161.683 90.1703H172.161L172.075 88.9975H172.334L172.681 93.7324H172.291L172.248 92.907C172.075 90.9522 171.382 90.5613 169.217 90.5613H167.918V103.68C167.918 104.679 168.004 104.766 169.087 104.766H170.776V104.94H163.112V104.809Z" fill="black"/>
<path d="M180.777 99.9877L180.821 100.813C180.951 103.246 182.726 104.809 184.891 104.809C186.926 104.809 188.268 103.723 188.268 101.725C188.268 97.9894 180.864 97.9894 180.864 93.4283C180.864 91.4301 182.639 90.0835 185.324 90.0835C186.666 90.0835 187.619 90.5179 188.312 90.9957C188.485 91.0826 188.658 91.3866 188.701 91.4735L188.831 91.4301C188.788 91.2998 188.788 91.0826 188.745 90.7785L188.701 89.6925H188.918L189.178 94.5577H188.788L188.745 93.6889C188.658 92.0817 187.619 90.4744 185.367 90.4744C183.549 90.4744 182.509 91.3432 182.509 92.9939C182.509 96.6428 190 96.5994 190 101.421C190 103.897 188.095 105.2 184.977 105.2C183.592 105.2 182.553 104.853 181.427 104.071C181.254 103.984 180.951 103.593 180.864 103.376H180.777C180.864 103.593 180.864 104.028 180.864 104.245L180.907 105.548H180.691L180.388 99.9442L180.777 99.9877Z" fill="black"/>
<path d="M135.745 0.207188C132.844 0.902219 129.597 4.37738 127.258 6.24528C124.098 8.80821 121.11 11.5449 118.252 14.4119C109.116 17.2789 100.066 17.887 90.4102 17.7567C77.5935 17.583 57.7621 18.5821 51.1372 31.9614C50.7908 32.6565 51.83 33.2212 52.1331 32.5696C57.3291 21.9704 72.9171 19.1902 83.4823 18.8862C94.0907 18.6255 104.31 19.4943 114.701 16.7142C115.264 16.5839 115.871 16.4101 116.433 16.2363C116 16.6707 115.567 17.1051 115.178 17.5395C111.021 21.9704 107.167 26.6184 103.357 31.3098C96.9918 35.9144 90.9731 40.9969 85.0411 46.1662C81.707 49.0766 78.9358 52.5083 76.1213 55.94C74.5192 57.8948 70.9686 61.1528 70.7088 63.8026C70.7088 64.0198 70.8387 64.1935 71.0119 64.3238C75.1254 66.9302 85.8637 53.7246 87.9421 51.5092C93.8309 45.2539 99.1568 38.5208 104.526 31.8311C105.955 30.7886 107.427 29.7895 108.943 28.7904C111.8 26.9225 114.745 25.1849 117.776 23.5342C118.772 23.0129 119.811 22.4482 120.85 21.9269C122.366 21.2319 129.683 18.1042 128.601 20.8409C128.341 21.536 129.467 21.84 129.727 21.145C130.289 19.6681 130.246 20.1025 129.856 18.5386C129.77 18.1911 129.467 18.1043 129.12 18.1477C121.153 19.3206 113.835 23.9251 107.211 28.4863C110.848 24.012 114.615 19.6246 118.685 15.5413C125.18 13.63 132.584 10.8499 136.655 5.89776C138.776 3.42171 140.768 -1.00912 135.745 0.207188ZM93.5278 43.386C89.0246 48.7725 84.2617 53.8984 79.1523 58.7202C77.8533 59.9365 74.779 63.3247 73.9563 62.9772C73.6532 62.4994 74.6924 60.7184 74.7357 60.588C74.9089 60.2405 74.5625 59.9799 74.7357 59.6324C74.779 59.5021 74.8223 59.4152 74.8223 59.2849C75.4285 58.6333 76.0347 57.9817 76.5543 57.3301C81.5338 51.1617 86.8163 46.0793 92.9216 40.9968C95.3897 38.9118 97.9011 36.9135 100.456 34.9153C98.1609 37.7389 95.866 40.5625 93.5278 43.386ZM120.807 22.0138C120.504 22.1441 120.547 22.1007 120.807 22.0138V22.0138ZM121.11 13.4562C120.98 13.4997 120.893 13.5431 120.763 13.5865C122.062 12.3268 123.361 11.1105 124.747 9.89419C126.912 8.02629 129.12 6.24528 131.415 4.5077C132.541 3.63891 136.395 0.250632 136.741 3.98643C137.044 7.8091 123.058 12.7178 121.11 13.4562Z" fill="black"/>
</svg>
