<svg width="150" height="83" viewBox="0 0 150 83" fill="none" xmlns="http://www.w3.org/2000/svg">
<path d="M0.0341836 82.011H0.649496C1.5041 82.011 1.60665 81.9428 1.60665 81.1584V71.5753C1.60665 70.791 1.5041 70.7227 0.649496 70.7227H0.0341836V70.5863H7.41795C7.7256 70.5863 7.75979 70.6204 7.89652 70.7227L7.82815 69.6314H7.99907L8.34091 74.3377H8.03326L7.96489 73.2123C7.86234 71.473 6.46079 70.8933 4.75159 70.8933H2.59799C2.80309 71.0979 2.97401 71.3707 2.97401 71.7458V76.5544H3.69188C4.68322 76.5544 5.91385 76.3839 5.91385 74.8493V73.8944H6.05058V79.2145H5.87966V78.5665C5.87966 77.4411 5.09343 76.8614 3.6577 76.8614H2.93983V81.2266C2.93983 82.011 3.04238 82.0792 3.89698 82.0792H5.05924V82.2156H0V82.011H0.0341836Z" fill="black"/>
<path d="M14.5273 82.0109H15.1427C15.9973 82.0109 16.0998 81.9427 16.0998 81.1583V71.5412C16.0998 70.7568 15.9973 70.6886 15.1427 70.6886H14.5273V70.5522H19.0396V70.7227H18.4243C17.5697 70.7227 17.4672 70.7909 17.4672 71.5753V81.1583C17.4672 81.9427 17.5697 82.0109 18.4243 82.0109H19.0396V82.1473H14.5273V82.0109Z" fill="black"/>
<path d="M25.1602 82.1133V81.9769H25.6046C26.4592 81.9769 26.5617 81.9086 26.5617 81.1243V71.5412C26.5617 70.7568 26.4592 70.6886 25.6046 70.6886H25.1602V70.5522H27.8607L32.749 78.6688C32.9541 78.9758 33.0567 79.2145 33.0567 79.2486H33.1592C33.1592 79.0781 33.1592 78.8393 33.1592 78.5665V71.6776C33.1592 70.8932 32.8516 70.6545 31.997 70.6545H31.2107V70.5181H34.8684V70.6545H34.595C33.7404 70.6545 33.4327 70.8932 33.4669 71.6776V82.4202H33.3302C33.3302 82.2156 33.0567 81.8063 32.8174 81.4312L27.2796 72.3597C27.1087 72.0528 26.9377 71.7799 26.9377 71.7458H26.8352C26.8694 71.9163 26.8694 72.1551 26.8694 72.4279V81.1243C26.8694 81.9086 26.9719 81.9769 27.8265 81.9769H28.3051V82.1133H25.1602Z" fill="black"/>
<path d="M46.5574 78.7711V77.8844C46.5574 76.3498 45.6344 76.1452 44.643 76.1793H43.9252V80.9538C43.9252 81.2948 43.7543 81.6017 43.5492 81.8063H47.1043C48.8135 81.8063 49.6339 81.1584 49.7365 79.6237L49.839 78.3278H50.1125L49.8048 82.693H49.6681L49.7023 81.9428C49.5655 82.0451 49.3263 82.0792 49.0528 82.0792H41.0195V81.9428H41.6348C42.4894 81.9428 42.592 81.8746 42.592 81.0902V71.5071C42.592 70.7227 42.4894 70.6545 41.6348 70.6545H41.0195V70.5181H48.0956C48.3691 70.5181 48.6426 70.5522 48.7451 70.6545H48.7793L48.7109 69.9042H48.8819L49.2237 74.2695H48.9161L48.8477 73.1441C48.7451 71.4048 47.8222 70.7909 46.113 70.825H43.6175C43.8226 71.0297 43.9935 71.3025 43.9935 71.6776V75.9064H44.7114C45.7028 75.9064 46.6257 75.7359 46.6257 74.2013V73.6215H46.7966V78.8052H46.5574V78.7711Z" fill="black"/>
<path d="M65.6006 78.4983L65.6348 79.1463C65.7374 81.0561 67.1389 82.2838 68.8481 82.2838C70.4548 82.2838 71.5145 81.4312 71.5145 79.8625C71.5145 76.9296 65.669 76.9296 65.669 73.3487C65.669 71.7799 67.0705 70.7227 69.19 70.7227C70.2497 70.7227 71.0017 71.0638 71.5487 71.4389C71.6854 71.5071 71.8221 71.7458 71.8563 71.814L71.9589 71.7799C71.9247 71.6776 71.9247 71.5071 71.8905 71.2684L71.8563 70.4158H72.0272L72.2323 74.2354H71.9247L71.8905 73.5533C71.8221 72.2915 71.0017 71.0297 69.2241 71.0297C67.7884 71.0297 66.968 71.7117 66.968 73.0077C66.968 75.8724 72.8818 75.8383 72.8818 79.6237C72.8818 81.5676 71.3777 82.5907 68.9165 82.5907C67.8226 82.5907 67.0022 82.3179 66.1134 81.7041C65.9767 81.6358 65.7374 81.3289 65.669 81.1584H65.6006C65.669 81.3289 65.669 81.6699 65.669 81.8405L65.7032 82.8636H65.5323L65.293 78.4642L65.6006 78.4983Z" fill="black"/>
<path d="M79.377 76.5885C79.377 73.0418 81.8724 70.6886 85.5985 70.6886C86.7949 70.6886 87.9572 71.0297 88.8459 71.7118C88.9143 71.78 88.9827 71.9164 89.051 72.0187L89.1536 71.9846C89.1194 71.8482 89.1194 71.6776 89.1194 71.5071L89.0852 70.3135H89.2562L89.4271 74.9857H89.1194L89.0852 73.4851C88.9827 72.0187 87.2735 70.8933 85.5301 70.8933C82.5903 70.8933 81.052 72.769 81.052 76.2475C81.052 80.1012 82.6928 82.1815 85.7352 82.1815C87.4102 82.1815 89.0511 81.3289 89.7006 79.9989L90.0082 80.1012C89.3245 81.7041 87.5811 82.4884 85.7352 82.4884C81.9066 82.5566 79.377 80.1694 79.377 76.5885Z" fill="black"/>
<path d="M101.734 79.1122V78.2255C101.734 76.6908 100.811 76.4862 99.8198 76.4862H99.1019V81.2607C99.1019 81.6018 98.931 81.9087 98.7259 82.1133H102.281C103.99 82.1133 104.811 81.4994 104.947 79.9307L105.05 78.6347H105.323L105.016 83H104.879L104.913 82.2497C104.776 82.352 104.537 82.3861 104.264 82.3861H96.2305V82.2497H96.8458C97.7004 82.2497 97.8029 82.1815 97.8029 81.3971V71.814C97.8029 71.0297 97.7004 70.9615 96.8458 70.9615H96.2305V70.8251H103.341C103.614 70.8251 103.888 70.8592 103.99 70.9615H104.024L103.956 70.2112H104.127L104.435 74.5764H104.127L104.059 73.451C103.956 71.7117 103.033 71.0979 101.324 71.0979H98.8285C99.0336 71.3025 99.2045 71.5753 99.2045 71.9505V76.1793H99.9224C100.914 76.1793 101.837 76.0088 101.837 74.4741V73.8944H102.008V79.0781H101.734V79.1122Z" fill="black"/>
<path d="M111.477 82.4543V82.3179H111.921C112.776 82.3179 112.878 82.2497 112.878 81.4653V71.8822C112.878 71.0979 112.776 71.0296 111.921 71.0296H111.477V70.8932H114.177L119.065 79.0099C119.271 79.3168 119.373 79.5555 119.373 79.5896H119.476C119.476 79.4191 119.476 79.1804 119.476 78.9075V72.0186C119.476 71.2343 119.202 70.9955 118.313 70.9955H117.527V70.8591H121.185V70.9955H120.911C120.057 70.9955 119.749 71.2343 119.749 72.0186V82.7271H119.612C119.612 82.5225 119.339 82.1133 119.1 81.7381L113.596 72.6666C113.425 72.3597 113.254 72.0869 113.254 72.0528H113.152C113.186 72.2233 113.186 72.462 113.186 72.7348V81.4312C113.186 82.2156 113.288 82.2838 114.143 82.2838H114.622V82.4202H111.477V82.4543Z" fill="black"/>
<path d="M128.773 82.2838H130.14C130.995 82.2838 131.063 82.2156 131.063 81.4312V71.132H130.003C128.294 71.132 127.679 71.4389 127.61 72.9736L127.542 73.6215H127.234L127.508 69.8701H127.713L127.645 70.7909H135.917L135.849 69.8701H136.054L136.327 73.5874H136.02L135.986 72.9395C135.849 71.4048 135.302 71.0979 133.593 71.0979H132.567V81.3971C132.567 82.1815 132.635 82.2497 133.49 82.2497H134.823V82.3861H128.773V82.2838Z" fill="black"/>
<path d="M142.72 78.4983L142.754 79.1463C142.857 81.0561 144.258 82.2838 145.967 82.2838C147.574 82.2838 148.634 81.4312 148.634 79.8625C148.634 76.9296 142.788 76.9296 142.788 73.3487C142.788 71.7799 144.19 70.7227 146.309 70.7227C147.369 70.7227 148.121 71.0638 148.668 71.4389C148.805 71.5071 148.941 71.7458 148.975 71.814L149.078 71.7799C149.044 71.6776 149.044 71.5071 149.01 71.2684L148.975 70.4158H149.146L149.351 74.2354H149.044L149.01 73.5533C148.941 72.2915 148.121 71.0297 146.343 71.0297C144.908 71.0297 144.087 71.7117 144.087 73.0077C144.087 75.8724 150.001 75.8383 150.001 79.6237C150.001 81.5676 148.497 82.5907 146.036 82.5907C144.942 82.5907 144.121 82.3179 143.233 81.7041C143.096 81.6358 142.857 81.3289 142.788 81.1584H142.72C142.788 81.3289 142.788 81.6699 142.788 81.8405L142.822 82.8636H142.651L142.412 78.4642L142.72 78.4983Z" fill="black"/>
<path d="M107.167 0.162659C104.877 0.708314 102.313 3.43659 100.467 4.90304C97.9717 6.91515 95.613 9.06367 93.3569 11.3145C86.144 13.5653 78.9996 14.0428 71.3765 13.9405C61.258 13.804 45.6017 14.5884 40.3715 25.0923C40.0981 25.638 40.9185 26.0813 41.1578 25.5697C45.2599 17.2485 57.5661 15.0659 65.9071 14.8272C74.2822 14.6225 82.3496 15.3046 90.5538 13.122C90.9982 13.0197 91.4767 12.8833 91.9211 12.7468C91.5793 13.0879 91.2375 13.4289 90.9298 13.7699C87.6481 17.2485 84.6057 20.8976 81.5975 24.5807C76.5725 28.1957 71.8209 32.1858 67.1377 36.2441C64.5055 38.5291 62.3177 41.2232 60.0958 43.9174C58.8309 45.4521 56.0279 48.0098 55.8228 50.0901C55.8228 50.2607 55.9253 50.3971 56.062 50.4994C59.3095 52.5456 67.7872 42.1781 69.428 40.4389C74.077 35.528 78.2817 30.2419 82.5205 24.99C83.6486 24.1715 84.8108 23.3871 86.0073 22.6027C88.2634 21.1363 90.588 19.7722 92.9808 18.4762C93.7671 18.067 94.5875 17.6236 95.4079 17.2144C96.6044 16.6687 102.381 14.2133 101.527 16.3618C101.322 16.9075 102.211 17.1462 102.416 16.6005C102.86 15.441 102.826 15.7821 102.518 14.5543C102.45 14.2815 102.211 14.2133 101.937 14.2474C95.6472 15.1682 89.8701 18.7832 84.6399 22.364C87.5114 18.8514 90.4854 15.4069 93.6987 12.2012C98.8263 10.7006 104.672 8.51801 107.885 4.63022C109.56 2.68632 111.133 -0.792238 107.167 0.162659ZM73.8378 34.0615C70.2826 38.2903 66.5224 42.3145 62.4886 46.1C61.4631 47.0549 59.0361 49.715 58.3866 49.4422C58.1473 49.067 58.9677 47.6688 59.0019 47.5665C59.1386 47.2937 58.8651 47.089 59.0019 46.8162C59.036 46.7139 59.0702 46.6457 59.0702 46.5434C59.5488 46.0318 60.0274 45.5203 60.4376 45.0087C64.3688 40.166 68.5392 36.1759 73.3592 32.1858C75.3077 30.5488 77.2903 28.9801 79.3072 27.4113C77.4955 29.6281 75.6837 31.8448 73.8378 34.0615ZM95.3737 17.2826C95.1344 17.3849 95.1686 17.3508 95.3737 17.2826V17.2826ZM95.613 10.5642C95.5105 10.5983 95.4421 10.6324 95.3396 10.6665C96.3651 9.67753 97.3906 8.72263 98.4845 7.76773C100.194 6.30128 101.937 4.90304 103.749 3.53891C104.638 2.85684 107.68 0.196766 107.953 3.12966C108.193 6.13077 97.1513 9.98446 95.613 10.5642Z" fill="black"/>
</svg>
