<svg width="80" height="59" viewBox="0 0 80 59" fill="none" xmlns="http://www.w3.org/2000/svg">
<path d="M77.1318 0.189043C74.4892 0.823207 71.5311 3.99403 69.4013 5.69834C66.5221 8.03682 63.8006 10.5338 61.1975 13.1498C52.8754 15.7657 44.6322 16.3206 35.8368 16.2017C24.1622 16.0431 6.09812 16.9547 0.0636129 29.1624C-0.251917 29.7966 0.694674 30.3118 0.970762 29.7173C5.70371 20.0463 19.9026 17.5096 29.5262 17.2322C39.1893 16.9944 48.4974 17.7871 57.9633 15.2504C58.4761 15.1315 59.0282 14.973 59.541 14.8144C59.1466 15.2108 58.7521 15.6071 58.3972 16.0035C54.6108 20.0463 51.1006 24.2873 47.6297 28.5679C41.8319 32.7692 36.3495 37.4065 30.9461 42.1231C27.9091 44.7787 25.3849 47.9099 22.8212 51.041C21.3619 52.8246 18.1277 55.7973 17.891 58.215C17.891 58.4132 18.0094 58.5717 18.1671 58.6906C21.9141 61.0688 31.6955 49.0196 33.5886 46.9982C38.9527 41.2908 43.8039 35.1473 48.6946 29.0435C49.9962 28.0923 51.3372 27.1806 52.7176 26.269C55.3208 24.5647 58.0028 22.9793 60.7636 21.4732C61.6708 20.9975 62.6174 20.4823 63.564 20.0067C64.9444 19.3725 71.61 16.5188 70.624 19.0158C70.3873 19.6499 71.4128 19.9274 71.6494 19.2932C72.1622 17.9456 72.1227 18.342 71.7678 16.9151C71.6889 16.598 71.4128 16.5188 71.0973 16.5584C63.8401 17.6286 57.1745 21.8299 51.14 25.9916C54.4531 21.9092 57.8844 17.906 61.5919 14.1803C67.5081 12.4363 74.2525 9.89968 77.96 5.38126C79.8926 3.12205 81.7069 -0.920743 77.1318 0.189043ZM38.6766 39.5865C34.5747 44.5012 30.2362 49.1782 25.5821 53.5777C24.3988 54.6875 21.5985 57.779 20.8491 57.4619C20.5731 57.026 21.5196 55.4009 21.5591 55.282C21.7168 54.9649 21.4013 54.7271 21.5591 54.41C21.5985 54.2911 21.638 54.2119 21.638 54.093C22.1901 53.4984 22.7423 52.9039 23.2156 52.3094C27.7514 46.6812 32.5632 42.0438 38.1244 37.4065C40.3725 35.504 42.6601 33.6808 44.9872 31.8576C42.8968 34.4339 40.8064 37.0102 38.6766 39.5865ZM63.5245 20.0859C63.2484 20.2048 63.2879 20.1652 63.5245 20.0859V20.0859ZM63.8006 12.2778C63.6823 12.3174 63.6034 12.3571 63.4851 12.3967C64.6683 11.2473 65.8516 10.1375 67.1137 9.0277C69.0857 7.32338 71.0972 5.69834 73.1876 4.11293C74.2131 3.32023 77.7234 0.228683 78.0389 3.63731C78.315 7.12521 65.5755 11.604 63.8006 12.2778Z" fill="black"/>
</svg>
