<svg aria-hidden="true" style="position: absolute; width: 0; height: 0; overflow: hidden;" version="1.1" xmlns="http://www.w3.org/2000/svg" xmlns:xlink="http://www.w3.org/1999/xlink">
<defs>
<symbol id="icon-logo" viewBox="0 0 57 32">
<path d="M0.013 31.536h0.235c0.327 0 0.366-0.026 0.366-0.328v-3.685c0-0.302-0.039-0.328-0.366-0.328h-0.235v-0.052h2.823c0.118 0 0.131 0.013 0.183 0.052l-0.026-0.42h0.065l0.131 1.81h-0.118l-0.026-0.433c-0.039-0.669-0.575-0.892-1.229-0.892h-0.824c0.078 0.079 0.144 0.184 0.144 0.328v1.849h0.274c0.379 0 0.85-0.066 0.85-0.656v-0.367h0.052v2.046h-0.065v-0.249c0-0.433-0.301-0.656-0.85-0.656h-0.274v1.679c0 0.302 0.039 0.328 0.366 0.328h0.444v0.053h-1.935v-0.079h0.013z"></path>
<path d="M5.555 31.536h0.235c0.327 0 0.366-0.026 0.366-0.328v-3.698c0-0.302-0.039-0.328-0.366-0.328h-0.235v-0.052h1.725v0.066h-0.235c-0.327 0-0.366 0.026-0.366 0.328v3.685c0 0.302 0.039 0.328 0.366 0.328h0.235v0.053h-1.725v-0.053z"></path>
<path d="M9.621 31.575v-0.053h0.17c0.327 0 0.366-0.026 0.366-0.328v-3.685c0-0.302-0.039-0.328-0.366-0.328h-0.17v-0.052h1.033l1.869 3.121c0.078 0.118 0.118 0.21 0.118 0.223h0.039c0-0.066 0-0.157 0-0.262v-2.649c0-0.302-0.118-0.393-0.444-0.393h-0.301v-0.052h1.399v0.052h-0.105c-0.327 0-0.444 0.092-0.431 0.393v4.131h-0.052c0-0.078-0.105-0.236-0.196-0.38l-2.118-3.488c-0.065-0.118-0.131-0.223-0.131-0.236h-0.039c0.013 0.066 0.013 0.157 0.013 0.262v3.344c0 0.302 0.039 0.328 0.366 0.328h0.183v0.053h-1.203z"></path>
<path d="M17.804 30.29v-0.341c0-0.59-0.353-0.669-0.732-0.656h-0.274v1.836c0 0.131-0.065 0.249-0.144 0.328h1.359c0.654 0 0.967-0.249 1.007-0.839l0.039-0.498h0.105l-0.118 1.679h-0.052l0.013-0.289c-0.052 0.039-0.144 0.053-0.248 0.053h-3.072v-0.053h0.235c0.327 0 0.366-0.026 0.366-0.328v-3.685c0-0.302-0.039-0.328-0.366-0.328h-0.235v-0.052h2.706c0.105 0 0.209 0.013 0.248 0.052h0.013l-0.026-0.288h0.065l0.131 1.679h-0.118l-0.026-0.433c-0.039-0.669-0.392-0.905-1.046-0.892h-0.954c0.078 0.079 0.144 0.184 0.144 0.328v1.626h0.274c0.379 0 0.732-0.066 0.732-0.656v-0.223h0.065v1.993h-0.091v-0.013z"></path>
<path d="M25.085 30.185l0.013 0.249c0.039 0.735 0.575 1.206 1.229 1.206 0.614 0 1.020-0.328 1.020-0.931 0-1.128-2.235-1.128-2.235-2.505 0-0.603 0.536-1.010 1.346-1.010 0.405 0 0.693 0.131 0.902 0.275 0.052 0.026 0.105 0.118 0.118 0.144l0.039-0.013c-0.013-0.039-0.013-0.105-0.026-0.197l-0.013-0.328h0.065l0.078 1.469h-0.118l-0.013-0.262c-0.026-0.485-0.34-0.97-1.020-0.97-0.549 0-0.863 0.262-0.863 0.761 0 1.102 2.261 1.088 2.261 2.544 0 0.747-0.575 1.141-1.516 1.141-0.418 0-0.732-0.105-1.072-0.341-0.052-0.026-0.144-0.144-0.17-0.21h-0.026c0.026 0.066 0.026 0.197 0.026 0.262l0.013 0.393h-0.065l-0.091-1.692 0.118 0.013z"></path>
<path d="M30.353 29.451c0-1.364 0.954-2.269 2.379-2.269 0.457 0 0.902 0.131 1.242 0.393 0.026 0.026 0.052 0.079 0.078 0.118l0.039-0.013c-0.013-0.052-0.013-0.118-0.013-0.184l-0.013-0.459h0.066l0.065 1.797h-0.118l-0.013-0.577c-0.039-0.564-0.693-0.997-1.359-0.997-1.124 0-1.712 0.721-1.712 2.059 0 1.482 0.627 2.282 1.791 2.282 0.64 0 1.268-0.328 1.516-0.839l0.117 0.039c-0.261 0.616-0.928 0.918-1.634 0.918-1.464 0.026-2.431-0.892-2.431-2.269z"></path>
<path d="M38.901 30.421v-0.341c0-0.59-0.353-0.669-0.732-0.669h-0.274v1.836c0 0.131-0.066 0.249-0.144 0.328h1.359c0.654 0 0.967-0.236 1.019-0.839l0.039-0.498h0.104l-0.117 1.679h-0.052l0.013-0.289c-0.052 0.039-0.144 0.053-0.248 0.053h-3.072v-0.053h0.235c0.327 0 0.366-0.026 0.366-0.328v-3.685c0-0.302-0.039-0.328-0.366-0.328h-0.235v-0.052h2.719c0.104 0 0.209 0.013 0.248 0.052h0.013l-0.026-0.288h0.066l0.118 1.679h-0.118l-0.026-0.433c-0.039-0.669-0.392-0.905-1.046-0.905h-0.954c0.078 0.079 0.144 0.184 0.144 0.328v1.626h0.274c0.379 0 0.732-0.066 0.732-0.656v-0.223h0.065v1.993h-0.104v0.013z"></path>
<path d="M42.627 31.706v-0.053h0.17c0.327 0 0.366-0.026 0.366-0.328v-3.685c0-0.302-0.039-0.328-0.366-0.328h-0.17v-0.052h1.033l1.869 3.121c0.078 0.118 0.117 0.21 0.117 0.223h0.039c0-0.066 0-0.158 0-0.262v-2.649c0-0.302-0.104-0.393-0.444-0.393h-0.301v-0.052h1.399v0.052h-0.104c-0.327 0-0.444 0.092-0.444 0.393v4.118h-0.052c0-0.079-0.105-0.236-0.196-0.38l-2.104-3.488c-0.066-0.118-0.131-0.223-0.131-0.236h-0.039c0.013 0.066 0.013 0.157 0.013 0.262v3.344c0 0.302 0.039 0.328 0.366 0.328h0.183v0.053h-1.203v0.013z"></path>
<path d="M49.241 31.64h0.523c0.327 0 0.353-0.026 0.353-0.328v-3.96h-0.405c-0.654 0-0.889 0.118-0.915 0.708l-0.026 0.249h-0.118l0.104-1.442h0.078l-0.026 0.354h3.163l-0.026-0.354h0.078l0.105 1.429h-0.118l-0.013-0.249c-0.052-0.59-0.261-0.708-0.915-0.708h-0.392v3.96c0 0.302 0.026 0.328 0.353 0.328h0.51v0.053h-2.314v-0.040z"></path>
<path d="M54.574 30.185l0.013 0.249c0.039 0.735 0.575 1.206 1.229 1.206 0.614 0 1.019-0.328 1.019-0.931 0-1.128-2.235-1.128-2.235-2.505 0-0.603 0.536-1.010 1.346-1.010 0.405 0 0.693 0.131 0.902 0.275 0.052 0.026 0.104 0.118 0.117 0.144l0.039-0.013c-0.013-0.039-0.013-0.105-0.026-0.197l-0.013-0.328h0.066l0.078 1.469h-0.118l-0.013-0.262c-0.026-0.485-0.34-0.97-1.020-0.97-0.549 0-0.863 0.262-0.863 0.761 0 1.102 2.261 1.088 2.261 2.544 0 0.747-0.575 1.141-1.516 1.141-0.418 0-0.732-0.105-1.072-0.341-0.052-0.026-0.144-0.144-0.17-0.21h-0.026c0.026 0.066 0.026 0.197 0.026 0.262l0.013 0.393h-0.065l-0.091-1.692 0.117 0.013z"></path>
<path d="M40.98 0.063c-0.876 0.21-1.856 1.259-2.562 1.823-0.954 0.774-1.856 1.6-2.719 2.465-2.758 0.865-5.49 1.049-8.405 1.010-3.869-0.052-9.856 0.249-11.856 4.288-0.105 0.21 0.209 0.38 0.301 0.184 1.569-3.2 6.274-4.039 9.464-4.131 3.203-0.079 6.288 0.184 9.425-0.656 0.17-0.039 0.353-0.092 0.523-0.144-0.131 0.131-0.261 0.262-0.379 0.393-1.255 1.338-2.418 2.741-3.569 4.157-1.922 1.39-3.739 2.924-5.529 4.485-1.007 0.879-1.843 1.915-2.693 2.951-0.484 0.59-1.556 1.574-1.634 2.374 0 0.066 0.039 0.118 0.091 0.157 1.242 0.787 4.484-3.2 5.111-3.869 1.778-1.888 3.386-3.921 5.006-5.941 0.431-0.315 0.876-0.616 1.333-0.918 0.862-0.564 1.752-1.088 2.667-1.587 0.301-0.157 0.614-0.328 0.928-0.485 0.458-0.21 2.667-1.154 2.34-0.328-0.078 0.21 0.261 0.302 0.34 0.092 0.17-0.446 0.157-0.315 0.039-0.787-0.026-0.105-0.117-0.131-0.222-0.118-2.405 0.354-4.614 1.744-6.614 3.121 1.098-1.351 2.235-2.675 3.464-3.908 1.961-0.577 4.196-1.416 5.425-2.911 0.64-0.748 1.242-2.085-0.275-1.718zM28.235 13.098c-1.359 1.626-2.797 3.174-4.34 4.629-0.392 0.367-1.32 1.39-1.569 1.285-0.091-0.144 0.222-0.682 0.235-0.721 0.052-0.105-0.052-0.184 0-0.288 0.013-0.039 0.026-0.066 0.026-0.105 0.183-0.197 0.366-0.393 0.523-0.59 1.503-1.862 3.098-3.396 4.941-4.931 0.745-0.629 1.503-1.233 2.275-1.836-0.693 0.852-1.386 1.705-2.092 2.557zM36.47 6.646c-0.091 0.039-0.078 0.026 0 0v0zM36.562 4.062c-0.039 0.013-0.066 0.026-0.105 0.039 0.392-0.38 0.784-0.747 1.203-1.115 0.654-0.564 1.32-1.102 2.013-1.626 0.34-0.262 1.503-1.285 1.608-0.157 0.091 1.154-4.131 2.636-4.719 2.859z"></path>
</symbol>
<symbol id="icon-arrow" viewBox="0 0 6 32">
<path fill="#fff" style="fill: var(--color1, #fff)" d="M2.537 31.649c0.136 0.136 0.356 0.136 0.492 0l2.214-2.214c0.136-0.136 0.136-0.356 0-0.492s-0.356-0.136-0.492 0l-1.968 1.968-1.968-1.968c-0.136-0.136-0.356-0.136-0.492 0s-0.136 0.356 0 0.492l2.214 2.214zM2.435 0.252v31.151h0.696v-31.151h-0.696z"></path>
</symbol>
<symbol id="icon-stop-play" viewBox="0 0 31 32">
<path fill="none" stroke="#fff" style="stroke: var(--color1, #fff)" stroke-linejoin="miter" stroke-linecap="butt" stroke-miterlimit="4" stroke-width="0.8" d="M30.8 16.12c0 8.351-6.803 15.124-15.2 15.124s-15.2-6.773-15.2-15.124c0-8.351 6.803-15.123 15.2-15.123s15.2 6.773 15.2 15.123z"></path>
<path fill="none" stroke="#fff" style="stroke: var(--color1, #fff)" stroke-linejoin="miter" stroke-linecap="butt" stroke-miterlimit="4" stroke-width="0.8" d="M11.6 9.353v13.533"></path>
<path fill="none" stroke="#fff" style="stroke: var(--color1, #fff)" stroke-linejoin="miter" stroke-linecap="butt" stroke-miterlimit="4" stroke-width="0.8" d="M20.4 9.353v13.533"></path>
</symbol>
<symbol id="icon-cart" viewBox="0 0 28 32">
<path fill="#e5dfd3" style="fill: var(--color2, #e5dfd3)" d="M12.327 0.066c-4.047 0.478-6.042 3.159-5.322 7.158 0.055 0.304 0.116 0.614 0.137 0.685 0.041 0.142 0.027 0.142-1.084 0.162l-1.125 0.026-0.521 0.246c-0.775 0.355-1.207 0.891-1.358 1.667-0.041 0.194-0.747 4.71-1.584 10.039-1.105 7.1-1.502 9.768-1.468 9.981 0.11 0.737 0.652 1.415 1.399 1.764l0.453 0.207h23.938l0.46-0.213c0.734-0.343 1.221-0.963 1.372-1.751 0.062-0.323-0.055-1.137-1.104-7.791-0.645-4.089-1.33-8.431-1.516-9.658-0.425-2.772-0.446-2.862-0.624-3.204-0.212-0.426-0.693-0.846-1.214-1.079-0.446-0.2-0.487-0.207-1.578-0.226-1.111-0.026-1.125-0.026-1.084-0.168 0.178-0.62 0.267-1.396 0.267-2.268-0.007-0.821-0.034-1.066-0.178-1.589-0.645-2.306-2.455-3.656-5.364-3.992-0.721-0.085-2.182-0.078-2.902 0.006zM16.086 1.171c1.214 0.297 2.112 0.801 2.702 1.505 0.995 1.195 1.241 2.817 0.754 4.916l-0.11 0.472h-11.214l-0.165-0.698c-0.213-0.891-0.226-2.39-0.041-3.049 0.46-1.608 1.577-2.642 3.361-3.101 0.83-0.213 1.248-0.252 2.689-0.232 1.2 0.020 1.454 0.046 2.023 0.188zM22.814 9.214c0.261 0.129 0.425 0.265 0.562 0.472 0.179 0.278 0.254 0.711 1.729 10.078 0.85 5.382 1.543 9.878 1.543 9.994 0 0.465-0.364 0.969-0.857 1.182-0.261 0.116-0.734 0.123-11.955 0.123-10.405 0-11.708-0.013-11.934-0.103-0.494-0.194-0.905-0.711-0.905-1.137 0-0.116 0.693-4.619 1.536-10.007 1.639-10.459 1.584-10.162 2.024-10.453 0.508-0.343 0.007-0.323 9.273-0.329h8.621l0.364 0.181z"></path>
</symbol>
<symbol id="icon-account" viewBox="0 0 25 32">
<path fill="#e5dfd3" style="fill: var(--color2, #e5dfd3)" d="M12.363 1.067c2.953 0 5.356 2.252 5.356 5.020v2.183c0 2.768-2.402 5.020-5.356 5.020s-5.356-2.252-5.356-5.020v-2.183c0-2.768 2.402-5.020 5.356-5.020zM12.363 0c-3.572 0-6.494 2.739-6.494 6.086v2.183c0 3.348 2.922 6.086 6.494 6.086s6.494-2.739 6.494-6.086v-2.183c0-3.348-2.922-6.086-6.494-6.086z"></path>
<path fill="#e5dfd3" style="fill: var(--color2, #e5dfd3)" d="M16.193 16.301c4.24 0.751 7.396 4.287 7.396 8.356v6.277h-22.451v-6.277c0-4.069 3.156-7.605 7.396-8.356 1.211 0.529 2.497 0.798 3.829 0.798s2.619-0.268 3.829-0.798zM16.020 15.192c-1.099 0.533-2.34 0.84-3.657 0.84s-2.558-0.307-3.657-0.84c-4.91 0.687-8.707 4.68-8.707 9.465v6.296c0 0.576 0.503 1.047 1.118 1.047h22.492c0.615 0 1.118-0.471 1.118-1.047v-6.296c0-4.785-3.797-8.778-8.707-9.465z"></path>
</symbol>
<symbol id="burger" viewBox="0 0 30 30">
<path fill="#fff" style="fill: var(--color2, #e5dfd3)" d="M0.762 0c-0.421 0-0.762 0.341-0.762 0.762s0.341 0.762 0.762 0.762h36.294c0.421 0 0.762-0.341 0.762-0.762s-0.341-0.762-0.762-0.762h-36.294zM0 16c0-0.421 0.341-0.762 0.762-0.762h36.294c0.421 0 0.762 0.341 0.762 0.762s-0.341 0.762-0.762 0.762h-36.294c-0.421 0-0.762-0.341-0.762-0.762zM0 31.238c0-0.421 0.341-0.762 0.762-0.762h36.294c0.421 0 0.762 0.341 0.762 0.762s-0.341 0.762-0.762 0.762h-36.294c-0.421 0-0.762-0.341-0.762-0.762z"></path>
</symbol>
</defs>
</svg>
