<svg aria-hidden="true" style="position: absolute; width: 0; height: 0; overflow: hidden;" version="1.1" xmlns="http://www.w3.org/2000/svg" xmlns:xlink="http://www.w3.org/1999/xlink">
<defs>
<symbol id="icon-basket-amount-btn-minus" viewBox="0 0 224 32">
<path fill="#e5dfd3" style="fill: var(--color1, #e5dfd3)" d="M224 0h-224v32h224v-32z"></path>
</symbol>
<symbol id="icon-basket-amount-btn-plus" viewBox="0 0 32 32">
<path fill="#e5dfd3" style="fill: var(--color1, #e5dfd3)" d="M32 13.714h-13.714v-13.714h-4.571v13.714h-13.714v4.571h13.714v13.714h4.571v-13.714h13.714v-4.571z"></path>
</symbol>
<symbol id="icon-gallery-slider-arrow-left" viewBox="0 0 32 32">
<path fill="#e5dfd3" style="fill: var(--color1, #e5dfd3)" d="M0.129 16.070c-0.039-0.039-0.039-0.102 0-0.141l0.632-0.632c0.039-0.039 0.102-0.039 0.141 0s0.039 0.102 0 0.141l-0.562 0.562 0.562 0.562c0.039 0.039 0.039 0.102 0 0.141s-0.102 0.039-0.141 0l-0.632-0.632zM32 16.099h-31.801v-0.199h31.801v0.199z"></path>
</symbol>
<symbol id="icon-gallery-slider-arrow-right" viewBox="0 0 32 32">
<path fill="#e5dfd3" style="fill: var(--color1, #e5dfd3)" d="M31.872 16.070c0.039-0.039 0.039-0.102 0-0.141l-0.632-0.632c-0.039-0.039-0.102-0.039-0.141 0s-0.039 0.102 0 0.141l0.562 0.562-0.562 0.562c-0.039 0.039-0.039 0.102 0 0.141s0.102 0.039 0.141 0l0.632-0.632zM0 16.099h31.801v-0.199h-31.801v0.199z"></path>
</symbol>
<symbol id="icon-logo" viewBox="0 0 32 32">
<path d="M0.007 24.667h0.131c0.182 0 0.204-0.015 0.204-0.183v-2.056c0-0.168-0.022-0.183-0.204-0.183h-0.131v-0.029h1.575c0.066 0 0.073 0.007 0.102 0.029l-0.015-0.234h0.036l0.073 1.010h-0.066l-0.015-0.241c-0.022-0.373-0.321-0.497-0.685-0.497h-0.459c0.044 0.044 0.080 0.102 0.080 0.183v1.032h0.153c0.212 0 0.474-0.037 0.474-0.366v-0.205h0.029v1.141h-0.036v-0.139c0-0.241-0.168-0.366-0.474-0.366h-0.153v0.936c0 0.168 0.022 0.183 0.204 0.183h0.248v0.029h-1.079v-0.044h0.007z"></path>
<path d="M3.099 24.667h0.131c0.182 0 0.204-0.015 0.204-0.183v-2.063c0-0.168-0.022-0.183-0.204-0.183h-0.131v-0.029h0.963v0.037h-0.131c-0.182 0-0.204 0.015-0.204 0.183v2.056c0 0.168 0.022 0.183 0.204 0.183h0.131v0.029h-0.963v-0.029z"></path>
<path d="M5.367 24.689v-0.029h0.095c0.182 0 0.204-0.014 0.204-0.183v-2.056c0-0.168-0.022-0.183-0.204-0.183h-0.095v-0.029h0.576l1.043 1.741c0.044 0.066 0.066 0.117 0.066 0.124h0.022c0-0.037 0-0.088 0-0.146v-1.478c0-0.168-0.066-0.22-0.248-0.22h-0.168v-0.029h0.78v0.029h-0.058c-0.182 0-0.248 0.051-0.241 0.22v2.305h-0.029c0-0.044-0.058-0.132-0.109-0.212l-1.181-1.946c-0.036-0.066-0.073-0.124-0.073-0.132h-0.022c0.007 0.037 0.007 0.088 0.007 0.146v1.866c0 0.168 0.022 0.183 0.204 0.183h0.102v0.029h-0.671z"></path>
<path d="M9.933 23.972v-0.19c0-0.329-0.197-0.373-0.408-0.366h-0.153v1.024c0 0.073-0.036 0.139-0.080 0.183h0.758c0.365 0 0.54-0.139 0.562-0.468l0.022-0.278h0.058l-0.066 0.937h-0.029l0.007-0.161c-0.029 0.022-0.080 0.029-0.139 0.029h-1.714v-0.029h0.131c0.182 0 0.204-0.015 0.204-0.183v-2.056c0-0.168-0.022-0.183-0.204-0.183h-0.131v-0.029h1.51c0.058 0 0.117 0.007 0.139 0.029h0.007l-0.015-0.161h0.036l0.073 0.936h-0.066l-0.015-0.241c-0.022-0.373-0.219-0.505-0.583-0.497h-0.532c0.044 0.044 0.080 0.102 0.080 0.183v0.907h0.153c0.211 0 0.408-0.037 0.408-0.366v-0.124h0.036v1.112h-0.051v-0.007z"></path>
<path d="M13.995 23.914l0.007 0.139c0.022 0.41 0.321 0.673 0.685 0.673 0.343 0 0.569-0.183 0.569-0.519 0-0.629-1.247-0.629-1.247-1.397 0-0.337 0.299-0.563 0.751-0.563 0.226 0 0.386 0.073 0.503 0.154 0.029 0.015 0.058 0.066 0.066 0.080l0.022-0.007c-0.007-0.022-0.007-0.059-0.015-0.11l-0.007-0.183h0.036l0.044 0.819h-0.066l-0.007-0.146c-0.015-0.271-0.19-0.541-0.569-0.541-0.306 0-0.481 0.146-0.481 0.424 0 0.615 1.262 0.607 1.262 1.419 0 0.417-0.321 0.636-0.846 0.636-0.233 0-0.408-0.058-0.598-0.19-0.029-0.015-0.080-0.081-0.095-0.117h-0.015c0.015 0.037 0.015 0.11 0.015 0.146l0.007 0.219h-0.036l-0.051-0.944 0.066 0.007z"></path>
<path d="M16.934 23.504c0-0.761 0.532-1.266 1.327-1.266 0.255 0 0.503 0.073 0.693 0.22 0.015 0.015 0.029 0.044 0.044 0.066l0.022-0.007c-0.007-0.029-0.007-0.066-0.007-0.102l-0.007-0.256h0.037l0.036 1.002h-0.066l-0.007-0.322c-0.022-0.315-0.387-0.556-0.758-0.556-0.627 0-0.955 0.402-0.955 1.149 0 0.827 0.35 1.273 0.999 1.273 0.357 0 0.707-0.183 0.846-0.468l0.066 0.022c-0.146 0.344-0.518 0.512-0.912 0.512-0.817 0.015-1.356-0.498-1.356-1.266z"></path>
<path d="M21.703 24.045v-0.19c0-0.329-0.197-0.373-0.408-0.373h-0.153v1.024c0 0.073-0.037 0.139-0.080 0.183h0.758c0.365 0 0.54-0.132 0.569-0.468l0.022-0.278h0.058l-0.066 0.937h-0.029l0.007-0.161c-0.029 0.022-0.080 0.029-0.139 0.029h-1.714v-0.029h0.131c0.182 0 0.204-0.015 0.204-0.183v-2.056c0-0.168-0.022-0.183-0.204-0.183h-0.131v-0.029h1.517c0.058 0 0.117 0.007 0.139 0.029h0.007l-0.015-0.161h0.037l0.066 0.936h-0.066l-0.015-0.241c-0.022-0.373-0.219-0.505-0.583-0.505h-0.532c0.044 0.044 0.080 0.102 0.080 0.183v0.907h0.153c0.212 0 0.408-0.037 0.408-0.366v-0.124h0.036v1.112h-0.058v0.007z"></path>
<path d="M23.781 24.762v-0.029h0.095c0.182 0 0.204-0.015 0.204-0.183v-2.056c0-0.168-0.022-0.183-0.204-0.183h-0.095v-0.029h0.576l1.043 1.741c0.044 0.066 0.066 0.117 0.066 0.124h0.022c0-0.037 0-0.088 0-0.146v-1.478c0-0.168-0.058-0.22-0.248-0.22h-0.168v-0.029h0.78v0.029h-0.058c-0.182 0-0.248 0.051-0.248 0.22v2.297h-0.029c0-0.044-0.058-0.132-0.109-0.212l-1.174-1.946c-0.037-0.066-0.073-0.124-0.073-0.132h-0.022c0.007 0.037 0.007 0.088 0.007 0.146v1.866c0 0.168 0.022 0.183 0.204 0.183h0.102v0.029h-0.671v0.007z"></path>
<path d="M27.471 24.726h0.292c0.182 0 0.197-0.014 0.197-0.183v-2.209h-0.226c-0.365 0-0.496 0.066-0.51 0.395l-0.014 0.139h-0.066l0.058-0.805h0.044l-0.014 0.198h1.765l-0.014-0.198h0.044l0.058 0.797h-0.066l-0.007-0.139c-0.029-0.329-0.146-0.395-0.51-0.395h-0.219v2.209c0 0.168 0.014 0.183 0.197 0.183h0.284v0.029h-1.291v-0.022z"></path>
<path d="M30.447 23.914l0.007 0.139c0.022 0.41 0.321 0.673 0.685 0.673 0.343 0 0.569-0.183 0.569-0.519 0-0.629-1.247-0.629-1.247-1.397 0-0.337 0.299-0.563 0.751-0.563 0.226 0 0.387 0.073 0.503 0.154 0.029 0.015 0.058 0.066 0.066 0.080l0.022-0.007c-0.007-0.022-0.007-0.059-0.014-0.11l-0.007-0.183h0.037l0.044 0.819h-0.066l-0.007-0.146c-0.015-0.271-0.19-0.541-0.569-0.541-0.306 0-0.481 0.146-0.481 0.424 0 0.615 1.262 0.607 1.262 1.419 0 0.417-0.321 0.636-0.846 0.636-0.233 0-0.408-0.058-0.598-0.19-0.029-0.015-0.080-0.081-0.095-0.117h-0.015c0.015 0.037 0.015 0.11 0.015 0.146l0.007 0.219h-0.036l-0.051-0.944 0.066 0.007z"></path>
<path d="M22.862 7.109c-0.489 0.117-1.035 0.702-1.429 1.017-0.532 0.432-1.035 0.893-1.517 1.375-1.539 0.483-3.063 0.585-4.689 0.563-2.159-0.029-5.499 0.139-6.614 2.392-0.058 0.117 0.117 0.212 0.168 0.102 0.875-1.785 3.5-2.253 5.28-2.305 1.787-0.044 3.508 0.102 5.258-0.366 0.095-0.022 0.197-0.051 0.292-0.081-0.073 0.073-0.146 0.146-0.211 0.22-0.7 0.746-1.349 1.529-1.991 2.319-1.072 0.775-2.086 1.631-3.085 2.502-0.562 0.49-1.028 1.068-1.502 1.646-0.27 0.329-0.868 0.878-0.912 1.324 0 0.037 0.022 0.066 0.051 0.088 0.693 0.439 2.501-1.785 2.851-2.158 0.992-1.054 1.889-2.188 2.793-3.314 0.241-0.176 0.489-0.344 0.744-0.512 0.481-0.315 0.977-0.607 1.488-0.885 0.168-0.088 0.343-0.183 0.518-0.271 0.255-0.117 1.488-0.644 1.305-0.183-0.044 0.117 0.146 0.168 0.19 0.051 0.095-0.249 0.087-0.176 0.022-0.439-0.014-0.059-0.066-0.073-0.124-0.066-1.342 0.198-2.574 0.973-3.69 1.741 0.613-0.754 1.247-1.492 1.932-2.18 1.094-0.322 2.341-0.79 3.027-1.624 0.357-0.417 0.693-1.163-0.153-0.958zM15.752 14.381c-0.758 0.907-1.561 1.771-2.421 2.583-0.219 0.205-0.737 0.776-0.875 0.717-0.051-0.080 0.124-0.38 0.131-0.402 0.029-0.059-0.029-0.102 0-0.161 0.007-0.022 0.015-0.037 0.015-0.059 0.102-0.11 0.204-0.22 0.292-0.329 0.839-1.039 1.728-1.895 2.757-2.751 0.416-0.351 0.839-0.688 1.269-1.024-0.387 0.476-0.773 0.951-1.167 1.427zM20.346 10.781c-0.051 0.022-0.044 0.015 0 0v0zM20.397 9.34c-0.022 0.007-0.037 0.015-0.058 0.022 0.219-0.212 0.438-0.417 0.671-0.622 0.365-0.315 0.736-0.615 1.123-0.907 0.19-0.146 0.839-0.717 0.897-0.088 0.051 0.644-2.305 1.471-2.633 1.595z"></path>
</symbol>
<symbol id="icon-logo-desktop" viewBox="0 0 32 32">
<path d="M0.007 24.642h0.131c0.182 0 0.204-0.015 0.204-0.182v-2.044c0-0.167-0.022-0.182-0.204-0.182h-0.131v-0.029h1.575c0.066 0 0.073 0.007 0.102 0.029l-0.015-0.233h0.036l0.073 1.004h-0.066l-0.015-0.24c-0.022-0.371-0.321-0.495-0.685-0.495h-0.459c0.044 0.044 0.080 0.102 0.080 0.182v1.026h0.153c0.212 0 0.474-0.036 0.474-0.364v-0.204h0.029v1.135h-0.036v-0.138c0-0.24-0.168-0.364-0.474-0.364h-0.153v0.931c0 0.167 0.022 0.182 0.204 0.182h0.248v0.029h-1.079v-0.044h0.007z"></path>
<path d="M3.099 24.642h0.131c0.182 0 0.204-0.015 0.204-0.182v-2.052c0-0.167-0.022-0.182-0.204-0.182h-0.131v-0.029h0.963v0.036h-0.131c-0.182 0-0.204 0.015-0.204 0.182v2.044c0 0.167 0.022 0.182 0.204 0.182h0.131v0.029h-0.963v-0.029z"></path>
<path d="M5.367 24.664v-0.029h0.095c0.182 0 0.204-0.015 0.204-0.182v-2.044c0-0.167-0.022-0.182-0.204-0.182h-0.095v-0.029h0.576l1.043 1.732c0.044 0.066 0.066 0.116 0.066 0.124h0.022c0-0.036 0-0.087 0-0.145v-1.47c0-0.167-0.066-0.218-0.248-0.218h-0.168v-0.029h0.78v0.029h-0.058c-0.182 0-0.248 0.051-0.241 0.218v2.292h-0.029c0-0.044-0.058-0.131-0.109-0.211l-1.181-1.935c-0.036-0.065-0.073-0.124-0.073-0.131h-0.022c0.007 0.036 0.007 0.087 0.007 0.145v1.855c0 0.167 0.022 0.182 0.204 0.182h0.102v0.029h-0.671z"></path>
<path d="M9.932 23.951v-0.189c0-0.327-0.197-0.371-0.408-0.364h-0.153v1.019c0 0.073-0.036 0.138-0.080 0.182h0.758c0.365 0 0.54-0.138 0.562-0.466l0.022-0.276h0.058l-0.066 0.931h-0.029l0.007-0.16c-0.029 0.022-0.080 0.029-0.139 0.029h-1.714v-0.029h0.131c0.182 0 0.204-0.015 0.204-0.182v-2.044c0-0.167-0.022-0.182-0.204-0.182h-0.131v-0.029h1.51c0.058 0 0.117 0.007 0.139 0.029h0.007l-0.015-0.16h0.036l0.073 0.931h-0.066l-0.015-0.24c-0.022-0.371-0.219-0.502-0.583-0.495h-0.532c0.044 0.044 0.080 0.102 0.080 0.182v0.902h0.153c0.211 0 0.408-0.036 0.408-0.364v-0.124h0.036v1.106h-0.051v-0.007z"></path>
<path d="M13.995 23.893l0.007 0.138c0.022 0.407 0.321 0.669 0.685 0.669 0.343 0 0.569-0.182 0.569-0.517 0-0.626-1.247-0.626-1.247-1.39 0-0.335 0.299-0.56 0.751-0.56 0.226 0 0.386 0.073 0.503 0.153 0.029 0.015 0.058 0.065 0.066 0.080l0.022-0.007c-0.007-0.022-0.007-0.058-0.015-0.109l-0.007-0.182h0.036l0.044 0.815h-0.066l-0.007-0.145c-0.015-0.269-0.19-0.538-0.569-0.538-0.306 0-0.481 0.145-0.481 0.422 0 0.611 1.262 0.604 1.262 1.411 0 0.415-0.321 0.633-0.846 0.633-0.233 0-0.408-0.058-0.598-0.189-0.029-0.015-0.080-0.080-0.095-0.116h-0.015c0.015 0.036 0.015 0.109 0.015 0.145l0.007 0.218h-0.036l-0.051-0.939 0.066 0.007z"></path>
<path d="M16.934 23.486c0-0.757 0.532-1.259 1.327-1.259 0.255 0 0.503 0.073 0.693 0.218 0.015 0.015 0.029 0.044 0.044 0.065l0.022-0.007c-0.007-0.029-0.007-0.066-0.007-0.102l-0.007-0.255h0.036l0.036 0.997h-0.066l-0.007-0.32c-0.022-0.313-0.387-0.553-0.758-0.553-0.627 0-0.955 0.4-0.955 1.142 0 0.822 0.35 1.266 0.999 1.266 0.357 0 0.707-0.182 0.846-0.466l0.066 0.022c-0.146 0.342-0.518 0.509-0.912 0.509-0.817 0.015-1.356-0.495-1.356-1.259z"></path>
<path d="M21.703 24.024v-0.189c0-0.327-0.197-0.371-0.408-0.371h-0.153v1.019c0 0.073-0.036 0.138-0.080 0.182h0.758c0.365 0 0.54-0.131 0.569-0.466l0.022-0.276h0.058l-0.066 0.931h-0.029l0.007-0.16c-0.029 0.022-0.080 0.029-0.138 0.029h-1.714v-0.029h0.131c0.182 0 0.204-0.015 0.204-0.182v-2.044c0-0.167-0.022-0.182-0.204-0.182h-0.131v-0.029h1.517c0.058 0 0.117 0.007 0.138 0.029h0.007l-0.015-0.16h0.036l0.066 0.931h-0.066l-0.015-0.24c-0.022-0.371-0.219-0.502-0.583-0.502h-0.532c0.044 0.044 0.080 0.102 0.080 0.182v0.902h0.153c0.212 0 0.408-0.036 0.408-0.364v-0.124h0.036v1.106h-0.058v0.007z"></path>
<path d="M23.782 24.737v-0.029h0.095c0.182 0 0.204-0.015 0.204-0.182v-2.044c0-0.167-0.022-0.182-0.204-0.182h-0.095v-0.029h0.576l1.043 1.732c0.044 0.065 0.066 0.116 0.066 0.124h0.022c0-0.036 0-0.087 0-0.145v-1.47c0-0.167-0.058-0.218-0.248-0.218h-0.168v-0.029h0.78v0.029h-0.058c-0.182 0-0.248 0.051-0.248 0.218v2.284h-0.029c0-0.044-0.058-0.131-0.109-0.211l-1.174-1.935c-0.036-0.065-0.073-0.124-0.073-0.131h-0.022c0.007 0.036 0.007 0.087 0.007 0.145v1.855c0 0.167 0.022 0.182 0.204 0.182h0.102v0.029h-0.671v0.007z"></path>
<path d="M27.472 24.701h0.292c0.182 0 0.197-0.015 0.197-0.182v-2.197h-0.226c-0.365 0-0.496 0.065-0.511 0.393l-0.015 0.138h-0.066l0.058-0.8h0.044l-0.015 0.196h1.765l-0.015-0.196h0.044l0.058 0.793h-0.066l-0.007-0.138c-0.029-0.327-0.146-0.393-0.511-0.393h-0.219v2.197c0 0.167 0.015 0.182 0.197 0.182h0.284v0.029h-1.291v-0.022z"></path>
<path d="M30.447 23.893l0.007 0.138c0.022 0.407 0.321 0.669 0.685 0.669 0.343 0 0.569-0.182 0.569-0.517 0-0.626-1.247-0.626-1.247-1.39 0-0.335 0.299-0.56 0.751-0.56 0.226 0 0.387 0.073 0.503 0.153 0.029 0.015 0.058 0.065 0.066 0.080l0.022-0.007c-0.007-0.022-0.007-0.058-0.015-0.109l-0.007-0.182h0.036l0.044 0.815h-0.066l-0.007-0.145c-0.015-0.269-0.19-0.538-0.569-0.538-0.306 0-0.481 0.145-0.481 0.422 0 0.611 1.262 0.604 1.262 1.411 0 0.415-0.321 0.633-0.846 0.633-0.233 0-0.409-0.058-0.598-0.189-0.029-0.015-0.080-0.080-0.095-0.116h-0.015c0.015 0.036 0.015 0.109 0.015 0.145l0.007 0.218h-0.036l-0.051-0.939 0.066 0.007z"></path>
<path d="M22.862 7.181c-0.489 0.116-1.036 0.698-1.429 1.011-0.532 0.429-1.036 0.888-1.517 1.368-1.539 0.48-3.063 0.582-4.689 0.56-2.159-0.029-5.499 0.138-6.614 2.379-0.058 0.116 0.117 0.211 0.168 0.102 0.875-1.775 3.5-2.241 5.28-2.292 1.787-0.044 3.508 0.102 5.258-0.364 0.095-0.022 0.197-0.051 0.292-0.080-0.073 0.073-0.146 0.146-0.211 0.218-0.7 0.742-1.349 1.521-1.991 2.306-1.072 0.771-2.086 1.622-3.085 2.488-0.562 0.487-1.028 1.062-1.502 1.637-0.27 0.327-0.868 0.873-0.912 1.317 0 0.036 0.022 0.066 0.051 0.087 0.693 0.437 2.501-1.775 2.851-2.146 0.992-1.048 1.889-2.175 2.793-3.296 0.241-0.175 0.489-0.342 0.744-0.509 0.481-0.313 0.977-0.604 1.488-0.88 0.168-0.087 0.343-0.182 0.518-0.269 0.255-0.116 1.488-0.64 1.305-0.182-0.044 0.116 0.146 0.167 0.19 0.051 0.095-0.247 0.087-0.175 0.022-0.437-0.015-0.058-0.066-0.073-0.124-0.065-1.342 0.196-2.574 0.968-3.69 1.732 0.613-0.749 1.247-1.484 1.933-2.168 1.094-0.32 2.341-0.786 3.026-1.615 0.357-0.415 0.693-1.157-0.153-0.953zM15.752 14.413c-0.758 0.902-1.561 1.761-2.421 2.568-0.219 0.204-0.737 0.771-0.875 0.713-0.051-0.080 0.124-0.378 0.131-0.4 0.029-0.058-0.029-0.102 0-0.16 0.007-0.022 0.015-0.036 0.015-0.058 0.102-0.109 0.204-0.218 0.292-0.327 0.839-1.033 1.728-1.884 2.757-2.736 0.416-0.349 0.839-0.684 1.269-1.019-0.387 0.473-0.773 0.946-1.167 1.419zM20.346 10.834c-0.051 0.022-0.044 0.015 0 0v0zM20.397 9.4c-0.022 0.007-0.036 0.015-0.058 0.022 0.219-0.211 0.438-0.415 0.671-0.618 0.365-0.313 0.737-0.611 1.123-0.902 0.19-0.146 0.839-0.713 0.897-0.087 0.051 0.64-2.304 1.462-2.633 1.586z"></path>
</symbol>
<symbol id="icon-logo-footer" viewBox="0 0 32 32">
<path fill="#e5dfd3" style="fill: var(--color1, #e5dfd3)" d="M0.004 17.292h0.131c0.183 0 0.204-0.019 0.204-0.194v-2.176c0-0.176-0.021-0.193-0.204-0.193h-0.134v-0.033h1.576c0.062 0 0.073 0.007 0.104 0.033l-0.014-0.248 0.034-0.004 0.073 1.071h-0.073l-0.009-0.261c-0.021-0.395-0.322-0.53-0.687-0.529h-0.458v0.004c0.025 0.024 0.046 0.053 0.060 0.086s0.022 0.068 0.023 0.104v1.090h0.15c0.214 0 0.472-0.037 0.471-0.387v-0.22h0.039v1.21h-0.035v-0.149c0-0.252-0.166-0.387-0.473-0.387h-0.149v0.987c0 0.176 0.024 0.194 0.207 0.193h0.244v0.032h-1.079l-0.001-0.029z"></path>
<path fill="#e5dfd3" style="fill: var(--color1, #e5dfd3)" d="M3.096 17.288h0.131c0.183 0 0.204-0.015 0.204-0.19v-2.183c0-0.175-0.021-0.19-0.204-0.19h-0.131v-0.033h0.965v0.039h-0.131c-0.183 0-0.207 0.015-0.206 0.19v2.175c0 0.176 0.024 0.19 0.207 0.19h0.131v0.032h-0.965v-0.032z"></path>
<path fill="#e5dfd3" style="fill: var(--color1, #e5dfd3)" d="M5.368 17.316v-0.032h0.096c0.183 0 0.207-0.019 0.206-0.194v-2.176c0-0.175-0.024-0.193-0.207-0.193h-0.096v-0.033h0.579l1.044 1.841c0.029 0.041 0.051 0.087 0.066 0.135h0.024c-0.004-0.041-0.004-0.092-0.004-0.155v-1.561c0-0.176-0.062-0.232-0.245-0.232h-0.169v-0.033h0.78v0.033h-0.059c-0.182 0-0.244 0.056-0.244 0.232v2.435h-0.028c-0.023-0.082-0.059-0.158-0.107-0.227l-1.179-2.057c-0.028-0.045-0.052-0.093-0.073-0.142h-0.020c0.006 0.051 0.009 0.103 0.007 0.155v1.974c0 0.176 0.021 0.194 0.204 0.194h0.1v0.032l-0.675 0.004z"></path>
<path fill="#e5dfd3" style="fill: var(--color1, #e5dfd3)" d="M9.935 16.556v-0.201c0-0.35-0.197-0.391-0.411-0.391h-0.152v1.083c-0 0.036-0.008 0.071-0.022 0.104s-0.035 0.062-0.060 0.085v0.004h0.754c0.365 0 0.538-0.144 0.565-0.495l0.024-0.292h0.058l-0.063 0.994h-0.031l0.010-0.169h-0.004c-0.043 0.027-0.092 0.039-0.142 0.033h-1.717v-0.032h0.132c0.183 0 0.204-0.019 0.203-0.194v-2.176c0-0.175-0.020-0.193-0.204-0.193h-0.131v-0.033h1.514c0.048-0.006 0.097 0.006 0.138 0.033h0.007l-0.014-0.168 0.034-0.004 0.073 0.991h-0.069l-0.015-0.256c-0.024-0.394-0.219-0.53-0.584-0.529h-0.535v0.004c0.026 0.024 0.046 0.053 0.061 0.085s0.022 0.068 0.023 0.104v0.958h0.152c0.214 0 0.41-0.038 0.409-0.387v-0.128h0.031v1.173l-0.036-0.004z"></path>
<path fill="#e5dfd3" style="fill: var(--color1, #e5dfd3)" d="M13.995 16.495l0.007 0.15c0.001 0.094 0.020 0.187 0.055 0.274s0.086 0.165 0.15 0.231c0.064 0.066 0.139 0.118 0.222 0.153s0.171 0.052 0.26 0.051c0.345 0 0.569-0.193 0.569-0.551 0-0.669-1.248-0.669-1.248-1.481 0-0.354 0.3-0.592 0.748-0.592 0.179-0.003 0.355 0.053 0.503 0.161 0.025 0.024 0.046 0.052 0.062 0.084l0.024-0.007c-0.008-0.038-0.013-0.078-0.014-0.117l-0.010-0.194h0.038l0.042 0.863-0.069 0.004-0.007-0.155c-0.018-0.288-0.193-0.574-0.569-0.574-0.307 0-0.483 0.155-0.483 0.446 0 0.647 1.266 0.64 1.266 1.498 0 0.439-0.321 0.677-0.845 0.677-0.215 0.002-0.424-0.067-0.6-0.197-0.039-0.032-0.071-0.074-0.093-0.121h-0.018c0.011 0.051 0.017 0.103 0.018 0.155l0.010 0.232h-0.035l-0.048-0.998 0.066 0.009z"></path>
<path fill="#e5dfd3" style="fill: var(--color1, #e5dfd3)" d="M16.936 16.060c0-0.801 0.531-1.334 1.324-1.334 0.25-0.005 0.494 0.077 0.697 0.232 0.017 0.022 0.031 0.047 0.042 0.073l0.024-0.007c-0.007-0.035-0.011-0.070-0.010-0.106l-0.007-0.268h0.034l0.035 1.057h-0.073l-0.010-0.34c-0.021-0.329-0.39-0.586-0.762-0.586-0.624 0-0.959 0.425-0.959 1.214 0 0.873 0.352 1.345 1 1.345 0.359 0 0.711-0.19 0.845-0.497l0.066 0.026c-0.146 0.366-0.517 0.541-0.914 0.541-0.797 0-1.331-0.541-1.331-1.353v0.001z"></path>
<path fill="#e5dfd3" style="fill: var(--color1, #e5dfd3)" d="M21.711 16.634v-0.201c0-0.35-0.197-0.391-0.411-0.391h-0.152v1.083c-0.001 0.036-0.008 0.072-0.023 0.104s-0.035 0.062-0.060 0.086v0.004h0.755c0.365 0 0.538-0.142 0.565-0.493l0.024-0.292h0.058l-0.066 0.991-0.031-0.004 0.010-0.169c-0.042 0.028-0.092 0.039-0.141 0.033h-1.721v-0.033h0.131c0.183 0 0.204-0.018 0.204-0.193v-2.173c0-0.176-0.021-0.194-0.204-0.194h-0.131v-0.033h1.514c0.048-0.006 0.097 0.006 0.138 0.033h0.007l-0.013-0.168 0.034-0.004 0.069 0.991h-0.069l-0.014-0.256c-0.024-0.395-0.219-0.53-0.584-0.53h-0.537c0.025 0.024 0.046 0.053 0.060 0.086s0.022 0.068 0.023 0.104v0.961h0.152c0.214 0 0.411-0.036 0.411-0.387v-0.128h0.034v1.173l-0.034-0.001z"></path>
<path fill="#e5dfd3" style="fill: var(--color1, #e5dfd3)" d="M23.786 17.387v-0.033h0.096c0.183 0 0.207-0.018 0.207-0.193v-2.175c0-0.176-0.024-0.194-0.207-0.194h-0.096v-0.033h0.579l1.042 1.843c0.028 0.041 0.050 0.087 0.066 0.135h0.024c-0.004-0.040-0.004-0.091-0.004-0.155v-1.561c0-0.176-0.062-0.232-0.245-0.232h-0.169v-0.033h0.779v0.033h-0.058c-0.182 0-0.244 0.055-0.244 0.232v2.435h-0.028c-0.023-0.082-0.059-0.158-0.107-0.227l-1.175-2.058c-0.028-0.046-0.052-0.093-0.073-0.143h-0.020c0.006 0.051 0.008 0.103 0.007 0.155v1.974c0 0.176 0.020 0.193 0.204 0.193h0.1v0.033l-0.677 0.003z"></path>
<path fill="#e5dfd3" style="fill: var(--color1, #e5dfd3)" d="M27.479 17.354h0.292c0.183 0 0.2-0.018 0.2-0.193v-2.337h-0.228c-0.365 0-0.493 0.069-0.511 0.42l-0.014 0.15-0.069-0.004 0.059-0.851h0.041l-0.017 0.213h1.765l-0.018-0.209 0.042-0.004 0.055 0.845-0.069 0.004-0.010-0.15c-0.028-0.351-0.146-0.42-0.51-0.42h-0.219v2.336c0 0.176 0.017 0.193 0.2 0.193h0.282v0.033h-1.272v-0.026z"></path>
<path fill="#e5dfd3" style="fill: var(--color1, #e5dfd3)" d="M30.454 16.495l0.007 0.15c0.001 0.094 0.020 0.188 0.055 0.274s0.086 0.165 0.15 0.231c0.064 0.066 0.139 0.118 0.222 0.153s0.171 0.052 0.26 0.051c0.345 0 0.569-0.193 0.569-0.552 0-0.669-1.248-0.669-1.248-1.481 0-0.354 0.3-0.592 0.748-0.592 0.18-0.003 0.356 0.053 0.503 0.161 0.026 0.025 0.048 0.054 0.064 0.087l0.024-0.007c-0.008-0.038-0.012-0.078-0.014-0.117l-0.010-0.194h0.038l0.041 0.863-0.069 0.004-0.007-0.155c-0.018-0.289-0.193-0.574-0.569-0.574-0.307 0-0.483 0.155-0.483 0.446 0 0.647 1.266 0.64 1.266 1.498 0 0.439-0.32 0.677-0.845 0.677-0.214 0.002-0.424-0.067-0.6-0.197-0.039-0.033-0.071-0.074-0.093-0.121h-0.018c0.011 0.051 0.017 0.103 0.018 0.155l0.011 0.232h-0.035l-0.048-0.998 0.064 0.005z"></path>
</symbol>
<symbol id="icon-logo-white" viewBox="0 0 32 32">
<path fill="#e5dfd3" style="fill: var(--color1, #e5dfd3)" d="M0.007 24.661h0.131c0.182 0 0.204-0.015 0.204-0.182v-2.049c0-0.168-0.022-0.182-0.204-0.182h-0.131v-0.029h1.575c0.066 0 0.073 0.007 0.102 0.029l-0.015-0.233h0.036l0.073 1.006h-0.066l-0.015-0.241c-0.022-0.372-0.321-0.496-0.685-0.496h-0.459c0.044 0.044 0.080 0.102 0.080 0.182v1.028h0.153c0.212 0 0.474-0.036 0.474-0.365v-0.204h0.029v1.137h-0.036v-0.139c0-0.241-0.168-0.365-0.474-0.365h-0.153v0.933c0 0.168 0.022 0.182 0.204 0.182h0.248v0.029h-1.079v-0.044h0.007z"></path>
<path fill="#e5dfd3" style="fill: var(--color1, #e5dfd3)" d="M3.099 24.661h0.131c0.182 0 0.204-0.015 0.204-0.182v-2.056c0-0.168-0.022-0.182-0.204-0.182h-0.131v-0.029h0.963v0.036h-0.131c-0.182 0-0.204 0.015-0.204 0.182v2.049c0 0.168 0.022 0.182 0.204 0.182h0.131v0.029h-0.963v-0.029z"></path>
<path fill="#e5dfd3" style="fill: var(--color1, #e5dfd3)" d="M5.367 24.683v-0.029h0.095c0.182 0 0.204-0.015 0.204-0.182v-2.049c0-0.168-0.022-0.182-0.204-0.182h-0.095v-0.029h0.576l1.043 1.735c0.044 0.066 0.066 0.117 0.066 0.124h0.022c0-0.036 0-0.087 0-0.146v-1.473c0-0.168-0.066-0.219-0.248-0.219h-0.168v-0.029h0.78v0.029h-0.058c-0.182 0-0.248 0.051-0.241 0.219v2.297h-0.029c0-0.044-0.058-0.131-0.109-0.211l-1.181-1.939c-0.036-0.066-0.073-0.124-0.073-0.131h-0.022c0.007 0.036 0.007 0.087 0.007 0.146v1.859c0 0.168 0.022 0.182 0.204 0.182h0.102v0.029h-0.671z"></path>
<path fill="#e5dfd3" style="fill: var(--color1, #e5dfd3)" d="M9.933 23.969v-0.19c0-0.328-0.197-0.372-0.408-0.365h-0.153v1.021c0 0.073-0.036 0.139-0.080 0.182h0.758c0.365 0 0.54-0.139 0.562-0.467l0.022-0.277h0.058l-0.066 0.933h-0.029l0.007-0.16c-0.029 0.022-0.080 0.029-0.139 0.029h-1.714v-0.029h0.131c0.182 0 0.204-0.015 0.204-0.182v-2.049c0-0.168-0.022-0.182-0.204-0.182h-0.131v-0.029h1.51c0.058 0 0.117 0.007 0.139 0.029h0.007l-0.015-0.16h0.036l0.073 0.933h-0.066l-0.015-0.241c-0.022-0.372-0.219-0.503-0.583-0.496h-0.532c0.044 0.044 0.080 0.102 0.080 0.182v0.904h0.153c0.211 0 0.408-0.036 0.408-0.365v-0.124h0.036v1.108h-0.051v-0.007z"></path>
<path fill="#e5dfd3" style="fill: var(--color1, #e5dfd3)" d="M13.995 23.91l0.007 0.139c0.022 0.408 0.321 0.671 0.686 0.671 0.343 0 0.569-0.182 0.569-0.518 0-0.627-1.247-0.627-1.247-1.393 0-0.335 0.299-0.561 0.751-0.561 0.226 0 0.386 0.073 0.503 0.153 0.029 0.015 0.058 0.066 0.066 0.080l0.022-0.007c-0.007-0.022-0.007-0.058-0.015-0.109l-0.007-0.182h0.036l0.044 0.817h-0.066l-0.007-0.146c-0.015-0.27-0.19-0.54-0.569-0.54-0.306 0-0.481 0.146-0.481 0.423 0 0.612 1.262 0.605 1.262 1.415 0 0.416-0.321 0.634-0.846 0.634-0.233 0-0.408-0.058-0.598-0.19-0.029-0.015-0.080-0.080-0.095-0.117h-0.015c0.015 0.036 0.015 0.109 0.015 0.146l0.007 0.219h-0.036l-0.051-0.941 0.066 0.007z"></path>
<path fill="#e5dfd3" style="fill: var(--color1, #e5dfd3)" d="M16.934 23.502c0-0.758 0.532-1.261 1.327-1.261 0.255 0 0.503 0.073 0.693 0.219 0.015 0.015 0.029 0.044 0.044 0.066l0.022-0.007c-0.007-0.029-0.007-0.066-0.007-0.102l-0.007-0.255h0.036l0.036 0.999h-0.066l-0.007-0.321c-0.022-0.314-0.387-0.554-0.758-0.554-0.627 0-0.955 0.401-0.955 1.145 0 0.824 0.35 1.269 0.999 1.269 0.357 0 0.707-0.182 0.846-0.467l0.066 0.022c-0.146 0.343-0.518 0.51-0.912 0.51-0.817 0.015-1.356-0.496-1.356-1.261z"></path>
<path fill="#e5dfd3" style="fill: var(--color1, #e5dfd3)" d="M21.703 24.041v-0.19c0-0.328-0.197-0.372-0.408-0.372h-0.153v1.021c0 0.073-0.036 0.139-0.080 0.182h0.758c0.365 0 0.54-0.131 0.569-0.467l0.022-0.277h0.058l-0.066 0.933h-0.029l0.007-0.16c-0.029 0.022-0.080 0.029-0.139 0.029h-1.714v-0.029h0.131c0.182 0 0.204-0.015 0.204-0.182v-2.049c0-0.168-0.022-0.182-0.204-0.182h-0.131v-0.029h1.517c0.058 0 0.117 0.007 0.139 0.029h0.007l-0.015-0.16h0.036l0.066 0.933h-0.066l-0.015-0.241c-0.022-0.372-0.219-0.503-0.583-0.503h-0.532c0.044 0.044 0.080 0.102 0.080 0.182v0.904h0.153c0.212 0 0.408-0.036 0.408-0.365v-0.124h0.036v1.108h-0.058v0.007z"></path>
<path fill="#e5dfd3" style="fill: var(--color1, #e5dfd3)" d="M23.781 24.756v-0.029h0.095c0.182 0 0.204-0.015 0.204-0.182v-2.049c0-0.168-0.022-0.182-0.204-0.182h-0.095v-0.029h0.576l1.043 1.735c0.044 0.066 0.066 0.117 0.066 0.124h0.022c0-0.036 0-0.087 0-0.146v-1.473c0-0.168-0.058-0.219-0.248-0.219h-0.168v-0.029h0.78v0.029h-0.058c-0.182 0-0.248 0.051-0.248 0.219v2.289h-0.029c0-0.044-0.058-0.131-0.109-0.211l-1.174-1.939c-0.036-0.066-0.073-0.124-0.073-0.131h-0.022c0.007 0.036 0.007 0.087 0.007 0.146v1.859c0 0.168 0.022 0.182 0.204 0.182h0.102v0.029h-0.671v0.007z"></path>
<path fill="#e5dfd3" style="fill: var(--color1, #e5dfd3)" d="M27.471 24.72h0.292c0.182 0 0.197-0.015 0.197-0.182v-2.202h-0.226c-0.365 0-0.496 0.066-0.511 0.394l-0.015 0.139h-0.066l0.058-0.802h0.044l-0.015 0.197h1.765l-0.015-0.197h0.044l0.058 0.795h-0.066l-0.007-0.139c-0.029-0.328-0.146-0.394-0.511-0.394h-0.219v2.202c0 0.168 0.015 0.182 0.197 0.182h0.284v0.029h-1.291v-0.022z"></path>
<path fill="#e5dfd3" style="fill: var(--color1, #e5dfd3)" d="M30.447 23.91l0.007 0.139c0.022 0.408 0.321 0.671 0.686 0.671 0.343 0 0.569-0.182 0.569-0.518 0-0.627-1.247-0.627-1.247-1.393 0-0.335 0.299-0.561 0.751-0.561 0.226 0 0.387 0.073 0.503 0.153 0.029 0.015 0.058 0.066 0.066 0.080l0.022-0.007c-0.007-0.022-0.007-0.058-0.015-0.109l-0.007-0.182h0.036l0.044 0.817h-0.065l-0.007-0.146c-0.015-0.27-0.19-0.54-0.569-0.54-0.306 0-0.481 0.146-0.481 0.423 0 0.612 1.262 0.605 1.262 1.415 0 0.416-0.321 0.634-0.846 0.634-0.233 0-0.408-0.058-0.598-0.19-0.029-0.015-0.080-0.080-0.095-0.117h-0.015c0.015 0.036 0.015 0.109 0.015 0.146l0.007 0.219h-0.036l-0.051-0.941 0.065 0.007z"></path>
<path fill="#e5dfd3" style="fill: var(--color1, #e5dfd3)" d="M22.862 7.162c-0.489 0.117-1.036 0.7-1.429 1.013-0.532 0.43-1.036 0.89-1.517 1.371-1.539 0.481-3.063 0.583-4.689 0.561-2.159-0.029-5.499 0.139-6.614 2.384-0.058 0.117 0.117 0.211 0.168 0.102 0.875-1.779 3.5-2.246 5.28-2.297 1.787-0.044 3.508 0.102 5.258-0.365 0.095-0.022 0.197-0.051 0.292-0.080-0.073 0.073-0.146 0.146-0.212 0.219-0.7 0.744-1.349 1.524-1.991 2.311-1.072 0.773-2.086 1.626-3.085 2.494-0.562 0.489-1.028 1.065-1.502 1.641-0.27 0.328-0.868 0.875-0.912 1.32 0 0.036 0.022 0.066 0.051 0.087 0.693 0.438 2.501-1.779 2.851-2.151 0.992-1.050 1.889-2.18 2.793-3.303 0.241-0.175 0.489-0.343 0.744-0.51 0.481-0.314 0.977-0.605 1.488-0.882 0.168-0.087 0.343-0.182 0.518-0.27 0.255-0.117 1.488-0.642 1.305-0.182-0.044 0.117 0.146 0.168 0.19 0.051 0.095-0.248 0.087-0.175 0.022-0.437-0.015-0.058-0.066-0.073-0.124-0.066-1.342 0.197-2.574 0.97-3.69 1.735 0.613-0.751 1.247-1.487 1.933-2.173 1.094-0.321 2.341-0.787 3.026-1.619 0.357-0.416 0.693-1.159-0.153-0.955zM15.752 14.41c-0.758 0.904-1.561 1.764-2.421 2.574-0.219 0.204-0.737 0.773-0.875 0.715-0.051-0.080 0.124-0.379 0.131-0.401 0.029-0.058-0.029-0.102 0-0.16 0.007-0.022 0.015-0.036 0.015-0.058 0.102-0.109 0.204-0.219 0.292-0.328 0.839-1.035 1.728-1.888 2.757-2.742 0.416-0.35 0.839-0.685 1.269-1.021-0.387 0.474-0.773 0.948-1.167 1.422zM20.346 10.822c-0.051 0.022-0.044 0.015 0 0v0zM20.397 9.386c-0.022 0.007-0.036 0.015-0.058 0.022 0.219-0.211 0.438-0.416 0.671-0.62 0.365-0.314 0.737-0.612 1.123-0.904 0.19-0.146 0.839-0.715 0.897-0.088 0.051 0.642-2.304 1.466-2.633 1.59z"></path>
</symbol>
<symbol id="icon-sidebar-btn-arrow" viewBox="0 0 32 32">
<path fill="#e5dfd3" style="fill: var(--color1, #e5dfd3)" d="M15.124 31.53c0.293 0.293 0.768 0.293 1.061 0l4.773-4.773c0.293-0.293 0.293-0.768 0-1.061s-0.768-0.293-1.061 0l-4.243 4.243-4.243-4.243c-0.293-0.293-0.768-0.293-1.061 0s-0.293 0.768 0 1.061l4.773 4.773zM14.904 0v31h1.5v-31h-1.5z"></path>
</symbol>
<symbol id="icon-stop-play-icon" viewBox="0 0 32 32">
<path fill="none" stroke="#fff" style="stroke: var(--color3, #fff)" stroke-linejoin="miter" stroke-linecap="butt" stroke-miterlimit="4" stroke-width="0.8" d="M31.2 16.12c0 8.351-6.803 15.124-15.2 15.124s-15.2-6.773-15.2-15.124c0-8.351 6.803-15.123 15.2-15.123s15.2 6.773 15.2 15.123z"></path>
<path fill="none" stroke="#fff" style="stroke: var(--color3, #fff)" stroke-linejoin="miter" stroke-linecap="butt" stroke-miterlimit="4" stroke-width="0.8" d="M12 9.353v13.533"></path>
<path fill="none" stroke="#fff" style="stroke: var(--color3, #fff)" stroke-linejoin="miter" stroke-linecap="butt" stroke-miterlimit="4" stroke-width="0.8" d="M20.8 9.353v13.533"></path>
</symbol>
<symbol id="icon-account" viewBox="0 0 32 32">
<path fill="#e5dfd3" style="fill: var(--color1, #e5dfd3)" d="M16 1.067c2.953 0 5.356 2.252 5.356 5.020v2.183c0 2.768-2.402 5.020-5.356 5.020s-5.356-2.252-5.356-5.020v-2.183c0-2.768 2.402-5.020 5.356-5.020zM16 0c-3.572 0-6.494 2.739-6.494 6.086v2.183c0 3.348 2.922 6.086 6.494 6.086s6.494-2.739 6.494-6.086v-2.183c0-3.348-2.922-6.086-6.494-6.086z"></path>
<path fill="#e5dfd3" style="fill: var(--color1, #e5dfd3)" d="M19.829 16.301c4.24 0.751 7.396 4.287 7.396 8.356v6.277h-22.451v-6.277c0-4.069 3.156-7.605 7.396-8.356 1.211 0.529 2.497 0.798 3.829 0.798s2.619-0.268 3.829-0.798zM19.657 15.192c-1.099 0.533-2.34 0.84-3.657 0.84s-2.558-0.307-3.657-0.84c-4.91 0.687-8.707 4.68-8.707 9.465v6.296c0 0.576 0.503 1.047 1.118 1.047h22.492c0.615 0 1.118-0.471 1.118-1.047v-6.296c0-4.785-3.797-8.778-8.707-9.465z"></path>
</symbol>
<symbol id="icon-arrow-player-icon" viewBox="0 0 32 32">
<path fill="#fff" style="fill: var(--color3, #fff)" d="M15.754 31.649c0.136 0.136 0.356 0.136 0.492 0l2.214-2.214c0.136-0.136 0.136-0.356 0-0.492s-0.356-0.136-0.492 0l-1.968 1.968-1.968-1.968c-0.136-0.136-0.356-0.136-0.492 0s-0.136 0.356 0 0.492l2.214 2.214zM15.652 0.252v31.151h0.696v-31.151h-0.696z"></path>
</symbol>
<symbol id="icon-bestseller-left-arrow" viewBox="0 0 32 32">
<path fill="#333" style="fill: var(--color4, #333)" d="M32 32h-32v-32h32v32z"></path>
<path fill="#e5dfd3" style="fill: var(--color1, #e5dfd3)" d="M12.308 16l5.938-6.154 0.831 0.862-5.107 5.292 5.107 5.292-0.831 0.862-5.938-6.154z"></path>
</symbol>
<symbol id="icon-bestseller-right-arrow" viewBox="0 0 32 32">
<path fill="#333" style="fill: var(--color4, #333)" d="M0 32h32v-32h-32v32z"></path>
<path fill="#e5dfd3" style="fill: var(--color1, #e5dfd3)" d="M19.692 16l-5.938-6.154-0.831 0.862 5.107 5.292-5.107 5.292 0.831 0.862 5.938-6.154z"></path>
</symbol>
<symbol id="icon-burger" viewBox="0 0 32 32">
<path fill="#e5dfd3" style="fill: var(--color1, #e5dfd3)" d="M0.645 2.462c-0.356 0-0.645 0.289-0.645 0.645s0.289 0.645 0.645 0.645h30.711c0.356 0 0.645-0.289 0.645-0.645s-0.289-0.645-0.645-0.645h-30.711zM0 16c0-0.356 0.289-0.645 0.645-0.645h30.711c0.356 0 0.645 0.289 0.645 0.645s-0.289 0.645-0.645 0.645h-30.711c-0.356 0-0.645-0.289-0.645-0.645zM0 28.894c0-0.356 0.289-0.645 0.645-0.645h30.711c0.356 0 0.645 0.289 0.645 0.645s-0.289 0.645-0.645 0.645h-30.711c-0.356 0-0.645-0.289-0.645-0.645z"></path>
</symbol>
</defs>
</svg>
